<?xml version="1.0" encoding="UTF-8" standalone="no"?>
<svg
   xmlns:dc="http://purl.org/dc/elements/1.1/"
   xmlns:cc="http://creativecommons.org/ns#"
   xmlns:rdf="http://www.w3.org/1999/02/22-rdf-syntax-ns#"
   xmlns:svg="http://www.w3.org/2000/svg"
   xmlns="http://www.w3.org/2000/svg"
   xmlns:sodipodi="http://sodipodi.sourceforge.net/DTD/sodipodi-0.dtd"
   xmlns:inkscape="http://www.inkscape.org/namespaces/inkscape"
   viewBox="0 0 138.358 21.748795"
   id="svg--visiongame-beta"
   version="1.1"
   sodipodi:docname="partners_visiongame.svg"
   width="138.358"
   height="21.748795"
   inkscape:version="0.92.3 (2405546, 2018-03-11)">
  <metadata
     id="metadata25">
    <rdf:RDF>
      <cc:Work
         rdf:about="">
        <dc:format>image/svg+xml</dc:format>
        <dc:type
           rdf:resource="http://purl.org/dc/dcmitype/StillImage" />
      </cc:Work>
    </rdf:RDF>
  </metadata>
  <defs
     id="defs23" />
  <sodipodi:namedview
     pagecolor="#ffffff"
     bordercolor="#666666"
     borderopacity="1"
     objecttolerance="10"
     gridtolerance="10"
     guidetolerance="10"
     inkscape:pageopacity="0"
     inkscape:pageshadow="2"
     inkscape:window-width="2560"
     inkscape:window-height="1377"
     id="namedview21"
     showgrid="false"
     inkscape:zoom="5.634123"
     inkscape:cx="99.387474"
     inkscape:cy="-2.3316801"
     inkscape:window-x="-8"
     inkscape:window-y="-8"
     inkscape:window-maximized="1"
     inkscape:current-layer="svg--visiongame-beta" />
  <path
     d="M 31.166,1.565795 H 31.165 A 2.471,2.471 0 0 0 28.304,0.40979501 l -0.007,0.003 a 2.48,2.48 0 0 1 -1.693,-0.094 l -0.006,-0.003 a 3.965,3.965 0 0 0 -1.111,-0.299 h -0.013 a 2.283,2.283 0 0 0 -1.478,0.325 l -2.69,1.46699999 -0.03,0.014 a 3.881,3.881 0 0 1 -1.702,0.389 h -0.042 a 8.548,8.548 0 0 0 -5.576,2.058 l -0.007,0.006 -7.754,6.104 -0.067,0.041 -0.087,0.059 a 0.342,0.342 0 0 0 0.234,0.592 h 0.756 c 0.119,0 0.215,0.096 0.215,0.215 a 0.206,0.206 0 0 1 -0.053,0.139 l -7.093,4.222 a 0.222,0.222 0 0 0 -0.1,0.184 c 0,0.119 0.095,0.213 0.215,0.213 a 0.197,0.197 0 0 0 0.12,-0.038 l 3.876,-1.344 -2.5,1.603 -0.002,10e-4 a 0.214,0.214 0 0 0 0.125,0.387 c 0.026,0 0.05,-0.002 0.074,-0.012 l 6.221,-2.928 0.067,-0.034 a 0.246,0.246 0 0 1 0.067,-0.009 c 0.119,0 0.214,0.096 0.214,0.213 0,0.052 -0.018,0.1 -0.048,0.137 l -0.038,0.051 -5.308,7.134 -0.021,0.027 a 0.54,0.54 0 0 0 -0.071,0.124 0.299,0.299 0 0 0 0.283,0.392 0.296,0.296 0 0 0 0.219,-0.098 l 3.57,-3.941 0.068,-0.003 a 10.072,10.072 0 0 0 3.681,-2.212 l 0.045,-0.046 0.002,-0.002 a 0.358,0.358 0 0 1 0.237,-0.089 c 0.046,0 0.091,0.008 0.131,0.023 l -0.008,-0.001 a 9.352,9.352 0 0 0 2.121,0.496 l 1.196,1.266 1.784,1.953 h -1.327 c -0.239,0 -0.519,0.279 -0.519,0.626 v 0.07 c 0.002,0.023 0.002,0.044 0.004,0.053 h 7.733 c 0.002,-0.009 0.002,-0.03 0.003,-0.053 h 0.001 v -0.07 a 0.625,0.625 0 0 0 -0.625,-0.626 H 20.2 a 0.377,0.377 0 0 0 -0.031,-0.042 l -2.602,-2.773 -0.007,-0.007 a 2.778,2.778 0 0 0 1.398,-1.514 9.395,9.395 0 0 0 4.151,-4.727 l -0.02,0.045 a 3.909,3.909 0 0 1 2.773,-2.355 l 0.005,-0.001 c 0.073,-0.016 0.146,-0.034 0.218,-0.054 l 0.04,-0.012 a 2.499,2.499 0 0 0 1.782,-2.141 v -0.013 c 0.093,-0.941 0.708,-1.566 1.553,-1.906 l 0.374,-0.157 0.074,-0.03 0.819,-0.32 a 0.228,0.228 0 0 0 -0.083,-0.437 h -0.008 l -2.05,-0.161 a 2.469,2.469 0 0 1 2.322,-0.591 c 0.02,0.003 0.037,0.007 0.057,0.007 a 0.23,0.23 0 0 0 0.201,-0.34 z m -12.094,17.529 h -1.593 c -0.01,-0.015 -0.02,-0.027 -0.032,-0.042 l -2.042,-2.173 c 0.339,-0.206 0.61,-0.511 0.774,-0.875 l 0.466,0.502 z"
     id="path2"
     inkscape:connector-curvature="0"
     style="fill:#00d775" />
  <path
     d="m 35.266,8.001795 h 1.956 l 3.378,9.125 3.345,-9.125 h 1.972 l -4.614,11.834 H 39.88 Z m 12.383,0 h 1.801 v 11.834 h -1.801 z m 3.876,8.628 1.766,-0.481 c 0.155,1.406 1.235,2.161 2.607,2.161 1.303,0 2.11,-0.635 2.11,-1.767 0,-2.607 -5.694,-1.887 -5.694,-5.574 0,-1.956 1.595,-3.138 3.482,-3.138 1.458,0 2.71,0.6 3.481,1.988 l -1.458,0.909 c -0.446,-0.857 -1.201,-1.304 -2.041,-1.304 -0.892,0 -1.646,0.584 -1.646,1.424 0,2.436 5.694,1.698 5.694,5.591 0,2.211 -1.75,3.533 -3.927,3.533 -2.076,0.002 -4.031,-1.13 -4.374,-3.342 z m 10.444,-8.628 h 1.801 v 11.834 h -1.801 z m 4.219,5.918 c 0,-3.258 1.749,-6.088 5.557,-6.088 3.79,0 5.54,2.83 5.54,6.088 0,3.258 -1.75,6.089 -5.54,6.089 -3.807,0 -5.557,-2.831 -5.557,-6.089 z m 9.228,0 c 0,-2.367 -1.012,-4.459 -3.67,-4.459 -2.658,0 -3.688,2.092 -3.688,4.459 0,2.367 1.029,4.46 3.688,4.46 2.659,0 3.67,-2.093 3.67,-4.46 z m 4.321,-5.918 h 2.007 l 5.042,9.09 v -9.09 h 1.749 v 11.834 h -2.024 l -5.008,-9.09 v 9.09 h -1.767 z m 22.005,5.592 v 6.243 h -1.441 l -0.12,-1.783 c -0.617,1.029 -1.818,1.955 -3.791,1.955 -3.362,0 -5.352,-2.745 -5.352,-6.106 0,-3.258 1.836,-6.089 5.575,-6.089 2.281,0 4.133,1.064 4.991,3.397 l -1.646,0.669 c -0.549,-1.579 -1.767,-2.454 -3.413,-2.454 -2.538,0 -3.705,2.076 -3.705,4.46 0,2.435 1.218,4.476 3.687,4.476 1.921,0 3.327,-1.27 3.499,-3.31 h -2.71 v -1.458 z m 9.415,3.67 h -4.888 l -0.926,2.573 h -1.852 l 4.579,-11.852 h 1.287 l 4.579,11.852 h -1.853 z m -0.549,-1.509 -1.887,-5.231 -1.904,5.231 z m 5.23,-7.753 h 2.59 l 3.259,8.851 3.241,-8.851 h 2.59 v 11.834 h -1.749 v -9.57 l -3.173,8.542 h -1.835 l -3.156,-8.542 v 9.57 h -1.767 z m 14.733,0 h 7.787 v 1.647 h -5.986 v 3.275 h 5.385 v 1.646 h -5.385 v 3.603 h 5.986 v 1.663 h -7.787 z"
     id="path4"
     inkscape:connector-curvature="0"
     style="fill:#ffffff" />
  <g
     id="g18"
     style="fill:#1f2023"
     transform="translate(0,-2.0498935e-4)" />
</svg>
