<svg version="1.1" viewBox="0 0 628.48 309.66" xmlns="http://www.w3.org/2000/svg" xmlns:osb="http://www.openswatchbook.org/uri/2009/osb">
 <g transform="translate(-874.29 -652.2)">
  <path d="m1278.8 943.2v-45" fill="none" stroke="#212121" stroke-dasharray="1, 2"/>
  <path d="m1239.8 854.2 0.1853 28.575 5.625 5.04 83.19 0.18533v-28.76l-5.625-5.04z" fill="#383731"/>
  <path d="m1238.8 943.2v-75" fill="none" stroke="#212121" stroke-dasharray="1, 2"/>
  <g>
   <path d="m1237.8 852.2v28.76l5.625 5.04h83.375v-28.76l-5.625-5.04z" fill="#fff29b"/>
   <g fill="#393939" stroke-linecap="round" aria-label="Konec  programování">
    <path d="m1272 865.9h-1.5059l-3.4512-3.8848-0.8672 0.92578v2.959h-1.1601v-8.7246h1.1601v4.5527l4.2364-4.5527h1.4062l-3.8965 4.1016z"/>
    <path d="m1278.4 862.63q0 1.5996-0.8203 2.5254t-2.1973 0.92578q-1.3887 0-2.209-0.92578-0.8144-0.92578-0.8144-2.5254t0.8144-2.5254q0.8203-0.93164 2.209-0.93164 1.377 0 2.1973 0.93164 0.8203 0.92578 0.8203 2.5254zm-1.1367 0q0-1.2715-0.4981-1.8867-0.498-0.62109-1.3828-0.62109-0.8965 0-1.3945 0.62109-0.4922 0.61523-0.4922 1.8867 0 1.2305 0.498 1.8691 0.4981 0.63281 1.3887 0.63281 0.8789 0 1.377-0.62695 0.5039-0.63281 0.5039-1.875z"/>
    <path d="m1285.6 865.9h-1.1016v-3.7266q0-0.45118-0.053-0.84375-0.053-0.39844-0.1934-0.6211-0.1465-0.24609-0.4218-0.36328-0.2754-0.12305-0.7149-0.12305-0.4512 0-0.9433 0.22266-0.4922 0.22266-0.9434 0.56836v4.8867h-1.1016v-6.5449h1.1016v0.72656q0.5156-0.42773 1.0664-0.66797 0.5508-0.24023 1.1309-0.24023 1.0605 0 1.6171 0.63867 0.5567 0.63867 0.5567 1.8398z"/>
    <path d="m1293.2 862.74h-4.8223q0 0.60351 0.1817 1.0547 0.1816 0.44532 0.498 0.73243 0.3047 0.28125 0.7207 0.42187 0.4219 0.14063 0.9258 0.14063 0.668 0 1.3418-0.26368 0.6797-0.26953 0.9668-0.52734h0.059v1.2012q-0.5566 0.23438-1.1367 0.39258t-1.2188 0.1582q-1.6289 0-2.5429-0.8789-0.9141-0.88477-0.9141-2.5078 0-1.6055 0.873-2.5488 0.8789-0.94336 2.3086-0.94336 1.3243 0 2.0391 0.77343 0.7207 0.77344 0.7207 2.1973zm-1.0723-0.84375q-0.01-0.86719-0.4394-1.3418-0.4278-0.47461-1.3067-0.47461-0.8847 0-1.4121 0.52148-0.5215 0.52149-0.5918 1.2949z"/>
    <path d="m1299.7 865.49q-0.5508 0.26367-1.0489 0.41016-0.4922 0.14648-1.0488 0.14648-0.709 0-1.3008-0.20507-0.5918-0.21094-1.0136-0.63282-0.4278-0.42187-0.6622-1.0664-0.2343-0.64453-0.2343-1.5059 0-1.6055 0.8789-2.5195 0.8847-0.91407 2.332-0.91407 0.5625 0 1.1016 0.15821 0.5449 0.1582 0.9961 0.38672v1.2246h-0.059q-0.5039-0.39257-1.043-0.60351-0.5332-0.21094-1.043-0.21094-0.9375 0-1.4824 0.63281-0.5391 0.62696-0.5391 1.8457 0 1.1836 0.5274 1.8223 0.5332 0.63282 1.4941 0.63282 0.334 0 0.6797-0.0879t0.6211-0.22851q0.2402-0.12305 0.4512-0.25781 0.2109-0.14063 0.334-0.24024h0.059z"/>
    <path d="m1247 877.55q0 0.79687-0.2285 1.459-0.2285 0.65625-0.6445 1.1133-0.3867 0.4336-0.9141 0.67383-0.5214 0.23438-1.1074 0.23438-0.5097 0-0.9258-0.11133-0.4101-0.11133-0.8379-0.34571v2.7422h-1.1015v-8.959h1.1015v0.68554q0.4395-0.36914 0.9844-0.61523 0.5508-0.25195 1.1719-0.25195 1.1836 0 1.8398 0.89648 0.6621 0.89063 0.6621 2.4785zm-1.1367 0.0293q0-1.1836-0.4043-1.7695t-1.2422-0.58594q-0.4746 0-0.955 0.20508-0.4805 0.20508-0.92 0.53907v3.709q0.4688 0.21094 0.8028 0.28711 0.3398 0.0762 0.7676 0.0762 0.9199 0 1.4355-0.62109 0.5156-0.6211 0.5156-1.8398z"/>
    <path d="m1252.8 875.56h-0.059q-0.2461-0.0586-0.4804-0.082-0.2285-0.0293-0.545-0.0293-0.5097 0-0.9843 0.22852-0.4746 0.22265-0.9141 0.58007v4.6465h-1.1016v-6.5449h1.1016v0.96679q0.6563-0.52734 1.1543-0.74414 0.5039-0.22265 1.0254-0.22265 0.2871 0 0.416 0.0176 0.1289 0.0117 0.3867 0.0527z"/>
    <path d="m1259.4 877.63q0 1.5996-0.8203 2.5254t-2.1973 0.92578q-1.3887 0-2.209-0.92578-0.8144-0.92578-0.8144-2.5254t0.8144-2.5254q0.8203-0.93164 2.209-0.93164 1.377 0 2.1973 0.93164 0.8203 0.92578 0.8203 2.5254zm-1.1367 0q0-1.2715-0.4981-1.8867-0.498-0.62109-1.3828-0.62109-0.8965 0-1.3945 0.62109-0.4922 0.61523-0.4922 1.8867 0 1.2305 0.498 1.8691 0.4981 0.63281 1.3887 0.63281 0.8789 0 1.377-0.62695 0.5039-0.63281 0.5039-1.875z"/>
    <path d="m1266.4 880.16q0 1.6641-0.7558 2.4434-0.7559 0.77929-2.3262 0.77929-0.5215 0-1.0195-0.0762-0.4922-0.0703-0.9727-0.20508v-1.125h0.059q0.2695 0.10547 0.8555 0.25782 0.5859 0.1582 1.1718 0.1582 0.5625 0 0.9317-0.13477 0.3691-0.13476 0.5742-0.375 0.2051-0.22851 0.293-0.55078 0.088-0.32226 0.088-0.7207v-0.59766q-0.4981 0.39844-0.9551 0.59766-0.4512 0.19336-1.1543 0.19336-1.1719 0-1.8633-0.84375-0.6856-0.84961-0.6856-2.3906 0-0.84375 0.2344-1.4531 0.2403-0.61523 0.6504-1.0606 0.3809-0.41601 0.9258-0.64453 0.5449-0.23437 1.084-0.23437 0.5683 0 0.9492 0.11718 0.3867 0.11133 0.8145 0.34571l0.07-0.28125h1.0312zm-1.1015-1.0547v-3.5684q-0.4395-0.19922-0.8204-0.28125-0.375-0.0879-0.75-0.0879-0.9082 0-1.4296 0.60938-0.5215 0.60937-0.5215 1.7695 0 1.1016 0.3867 1.6699t1.2832 0.56836q0.4805 0 0.9609-0.18164 0.4864-0.1875 0.8907-0.49805z"/>
    <path d="m1272.7 875.56h-0.059q-0.2461-0.0586-0.4805-0.082-0.2285-0.0293-0.5449-0.0293-0.5098 0-0.9844 0.22852-0.4746 0.22265-0.9141 0.58007v4.6465h-1.1015v-6.5449h1.1015v0.96679q0.6563-0.52734 1.1543-0.74414 0.5039-0.22265 1.0254-0.22265 0.2871 0 0.416 0.0176 0.129 0.0117 0.3868 0.0527z"/>
    <path d="m1278.6 880.9h-1.0957v-0.69727q-0.1465 0.0996-0.3984 0.28125-0.2461 0.17578-0.4805 0.28125-0.2754 0.13477-0.6328 0.22266-0.3574 0.0937-0.8379 0.0937-0.8848 0-1.5-0.58594-0.6153-0.58594-0.6153-1.4941 0-0.74414 0.3165-1.2012 0.3222-0.46289 0.914-0.72656 0.5977-0.26367 1.4356-0.35742 0.8379-0.0937 1.7988-0.14063v-0.16992q0-0.375-0.1348-0.6211-0.1289-0.24609-0.375-0.38671-0.2343-0.13477-0.5625-0.18164-0.3281-0.0469-0.6855-0.0469-0.4336 0-0.9668 0.11719-0.5332 0.11133-1.1016 0.32812h-0.059v-1.1191q0.3223-0.0879 0.9317-0.19336 0.6093-0.10547 1.2011-0.10547 0.6914 0 1.2012 0.11719 0.5156 0.11133 0.8906 0.38672 0.3692 0.26953 0.5625 0.69727 0.1934 0.42773 0.1934 1.0605zm-1.0957-1.6113v-1.8223q-0.5039 0.0293-1.1895 0.0879-0.6796 0.0586-1.0781 0.16992-0.4746 0.13476-0.7676 0.42187-0.2929 0.28125-0.2929 0.7793 0 0.5625 0.3398 0.84961 0.3399 0.28125 1.0371 0.28125 0.5801 0 1.0606-0.22266 0.4804-0.22851 0.8906-0.54492z"/>
    <path d="m1290.3 880.9h-1.1016v-3.7266q0-0.42188-0.041-0.81446-0.035-0.39257-0.1582-0.62695-0.1348-0.25195-0.3867-0.38086-0.252-0.12891-0.7266-0.12891-0.4629 0-0.9258 0.23438-0.4628 0.22852-0.9257 0.58594 0.017 0.13476 0.029 0.3164 0.012 0.17578 0.012 0.35157v4.1894h-1.1016v-3.7266q0-0.4336-0.041-0.82032-0.035-0.39257-0.1582-0.62695-0.1348-0.25195-0.3867-0.375-0.252-0.12891-0.7266-0.12891-0.4512 0-0.9082 0.22266-0.4512 0.22266-0.9023 0.56836v4.8867h-1.1016v-6.5449h1.1016v0.72656q0.5156-0.42773 1.0254-0.66797 0.5156-0.24023 1.0957-0.24023 0.6679 0 1.1308 0.28125 0.4688 0.28125 0.6973 0.77929 0.668-0.5625 1.2187-0.80859 0.5508-0.25195 1.1778-0.25195 1.0781 0 1.5879 0.65625 0.5156 0.65039 0.5156 1.8223z"/>
    <path d="m1298 877.63q0 1.5996-0.8203 2.5254t-2.1973 0.92578q-1.3886 0-2.209-0.92578-0.8144-0.92578-0.8144-2.5254t0.8144-2.5254q0.8204-0.93164 2.209-0.93164 1.377 0 2.1973 0.93164 0.8203 0.92578 0.8203 2.5254zm-1.1367 0q0-1.2715-0.4981-1.8867-0.498-0.62109-1.3828-0.62109-0.8965 0-1.3945 0.62109-0.4922 0.61523-0.4922 1.8867 0 1.2305 0.4981 1.8691 0.498 0.63281 1.3886 0.63281 0.8789 0 1.377-0.62695 0.5039-0.63281 0.5039-1.875z"/>
    <path d="m1305.3 874.35-2.6485 6.5449h-1.1074l-2.6309-6.5449h1.1953l2.0274 5.209 2.0098-5.209z"/>
    <path d="m1311.8 880.9h-1.0957v-0.69727q-0.1465 0.0996-0.3984 0.28125-0.2461 0.17578-0.4805 0.28125-0.2754 0.13477-0.6328 0.22266-0.3574 0.0937-0.8379 0.0937-0.8848 0-1.5-0.58594-0.6153-0.58594-0.6153-1.4941 0-0.74414 0.3165-1.2012 0.3222-0.46289 0.914-0.72656 0.5977-0.26367 1.4356-0.35742 0.8379-0.0937 1.7988-0.14063v-0.16992q0-0.375-0.1348-0.6211-0.1289-0.24609-0.375-0.38671-0.2343-0.13477-0.5625-0.18164-0.3281-0.0469-0.6855-0.0469-0.4336 0-0.9668 0.11719-0.5332 0.11133-1.1016 0.32812h-0.059v-1.1191q0.3223-0.0879 0.9317-0.19336 0.6093-0.10547 1.2011-0.10547 0.6914 0 1.2012 0.11719 0.5156 0.11133 0.8906 0.38672 0.3692 0.26953 0.5625 0.69727 0.1934 0.42773 0.1934 1.0605zm-1.0957-1.6113v-1.8223q-0.5039 0.0293-1.1895 0.0879-0.6796 0.0586-1.0781 0.16992-0.4746 0.13476-0.7676 0.42187-0.2929 0.28125-0.2929 0.7793 0 0.5625 0.3398 0.84961 0.3399 0.28125 1.0371 0.28125 0.5801 0 1.0606-0.22266 0.4804-0.22851 0.8906-0.54492zm0.3984-8.209-1.5996 2.1914h-0.873l1.0488-2.1914z"/>
    <path d="m1319.4 880.9h-1.1016v-3.7266q0-0.45118-0.053-0.84375-0.053-0.39844-0.1934-0.6211-0.1465-0.24609-0.4219-0.36328-0.2754-0.12305-0.7148-0.12305-0.4512 0-0.9434 0.22266t-0.9433 0.56836v4.8867h-1.1016v-6.5449h1.1016v0.72656q0.5156-0.42773 1.0664-0.66797 0.5508-0.24023 1.1308-0.24023 1.0606 0 1.6172 0.63867 0.5567 0.63867 0.5567 1.8398z"/>
    <path d="m1322.6 880.9h-1.1015v-6.5449h1.1015zm1.2129-9.8203-1.5996 2.1914h-0.873l1.0488-2.1914z"/>
   </g>
   <path d="m1279.8 894.2 0.1853 28.575 5.625 5.04 77.19 0.18533v-28.76l-5.625-5.04z" fill="#383731"/>
   <path d="m1277.8 892.2v28.76l5.625 5.04h77.375v-28.76l-5.625-5.04z" fill="#fff29b"/>
   <g fill="#393939" stroke-linecap="round" aria-label="Vyhlášení vítězů">
    <path d="m1299.3 897.18-3.1758 8.7246h-1.5469l-3.1758-8.7246h1.2422l2.7364 7.6758 2.7363-7.6758z"/>
    <path d="m1305.9 899.35-3.8203 8.959h-1.1778l1.2188-2.7305-2.6075-6.2285h1.1954l2.0097 4.8516 2.0274-4.8516z"/>
    <path d="m1312.8 905.9h-1.1015v-3.7266q0-0.45118-0.053-0.84375-0.053-0.39844-0.1933-0.6211-0.1465-0.24609-0.4219-0.36328-0.2754-0.12305-0.7148-0.12305-0.4512 0-0.9434 0.22266t-0.9434 0.56836v4.8867h-1.1015v-9.1172h1.1015v3.2988q0.5157-0.42773 1.0664-0.66797 0.5508-0.24023 1.1309-0.24023 1.0605 0 1.6172 0.63867 0.5566 0.63867 0.5566 1.8398z"/>
    <path d="m1316 905.9h-1.1016v-9.1172h1.1016z"/>
    <path d="m1323.3 905.9h-1.0957v-0.69727q-0.1464 0.0996-0.3984 0.28125-0.2461 0.17578-0.4805 0.28125-0.2754 0.13477-0.6328 0.22266-0.3574 0.0937-0.8379 0.0937-0.8847 0-1.5-0.58594-0.6152-0.58594-0.6152-1.4941 0-0.74414 0.3164-1.2012 0.3223-0.46289 0.9141-0.72656 0.5976-0.26367 1.4355-0.35742 0.8379-0.0937 1.7988-0.14063v-0.16992q0-0.375-0.1347-0.6211-0.1289-0.24609-0.375-0.38671-0.2344-0.13477-0.5625-0.18164-0.3281-0.0469-0.6856-0.0469-0.4336 0-0.9668 0.11719-0.5332 0.11133-1.1015 0.32812h-0.059v-1.1191q0.3222-0.0879 0.9316-0.19336 0.6094-0.10547 1.2012-0.10547 0.6914 0 1.2012 0.11719 0.5156 0.11133 0.8906 0.38672 0.3691 0.26953 0.5625 0.69727 0.1933 0.42773 0.1933 1.0605zm-1.0957-1.6113v-1.8223q-0.5039 0.0293-1.1894 0.0879-0.6797 0.0586-1.0781 0.16992-0.4746 0.13476-0.7676 0.42187-0.293 0.28125-0.293 0.7793 0 0.5625 0.3399 0.84961 0.3398 0.28125 1.0371 0.28125 0.58 0 1.0605-0.22266 0.4805-0.22851 0.8906-0.54492zm0.3985-8.209-1.5996 2.1914h-0.8731l1.0489-2.1914z"/>
    <path d="m1330.1 904.01q0 0.89648-0.7441 1.4707-0.7383 0.57422-2.0215 0.57422-0.7265 0-1.3359-0.16992-0.6035-0.17578-1.0137-0.38086v-1.2363h0.059q0.5215 0.39258 1.1602 0.62696 0.6386 0.22851 1.2246 0.22851 0.7265 0 1.1367-0.23437 0.4101-0.23438 0.4101-0.73828 0-0.38672-0.2226-0.58594-0.2227-0.19922-0.8555-0.33985-0.2344-0.0527-0.6152-0.12304-0.375-0.0703-0.6856-0.15235-0.8613-0.22851-1.2246-0.66797-0.3574-0.44531-0.3574-1.0898 0-0.4043 0.1641-0.76172 0.1699-0.35742 0.5097-0.63867 0.3282-0.27539 0.8321-0.43359 0.5097-0.16407 1.1367-0.16407 0.5859 0 1.1836 0.14649 0.6035 0.14062 1.0019 0.3457v1.1777h-0.059q-0.4218-0.31055-1.0254-0.52149-0.6035-0.2168-1.1836-0.2168-0.6035 0-1.0195 0.23438-0.416 0.22852-0.416 0.68555 0 0.40429 0.252 0.60937 0.246 0.20508 0.7968 0.33399 0.3047 0.0703 0.6797 0.14062 0.3809 0.0703 0.6328 0.12891 0.7676 0.17578 1.1836 0.60351 0.416 0.4336 0.416 1.1484zm-0.4453-7.9336-1.3359 2.2207h-1.3301l-1.3359-2.2207h0.9316l1.084 1.5 1.0781-1.5z"/>
    <path d="m1337.1 902.74h-4.8223q0 0.60351 0.1817 1.0547 0.1816 0.44532 0.498 0.73243 0.3047 0.28125 0.7207 0.42187 0.4219 0.14063 0.9258 0.14063 0.668 0 1.3418-0.26368 0.6797-0.26953 0.9668-0.52734h0.059v1.2012q-0.5567 0.23438-1.1367 0.39258-0.5801 0.1582-1.2188 0.1582-1.6289 0-2.543-0.8789-0.914-0.88477-0.914-2.5078 0-1.6055 0.873-2.5488 0.8789-0.94336 2.3086-0.94336 1.3242 0 2.0391 0.77343 0.7207 0.77344 0.7207 2.1973zm-1.0723-0.84375q-0.01-0.86719-0.4394-1.3418-0.4278-0.47461-1.3067-0.47461-0.8847 0-1.4121 0.52148-0.5215 0.52149-0.5918 1.2949z"/>
    <path d="m1344.3 905.9h-1.1016v-3.7266q0-0.45118-0.053-0.84375-0.053-0.39844-0.1934-0.6211-0.1465-0.24609-0.4219-0.36328-0.2754-0.12305-0.7148-0.12305-0.4512 0-0.9434 0.22266t-0.9433 0.56836v4.8867h-1.1016v-6.5449h1.1016v0.72656q0.5156-0.42773 1.0664-0.66797 0.5508-0.24023 1.1308-0.24023 1.0606 0 1.6172 0.63867 0.5567 0.63867 0.5567 1.8398z"/>
    <path d="m1347.5 905.9h-1.1015v-6.5449h1.1015zm1.2129-9.8203-1.5996 2.1914h-0.873l1.0488-2.1914z"/>
    <path d="m1308.6 914.35-2.6485 6.5449h-1.1074l-2.6308-6.5449h1.1953l2.0273 5.209 2.0098-5.209z"/>
    <path d="m1311.2 920.9h-1.1016v-6.5449h1.1016zm1.2128-9.8203-1.5996 2.1914h-0.873l1.0488-2.1914z"/>
    <path d="m1316.8 920.84q-0.3105 0.082-0.6797 0.13476-0.3633 0.0527-0.6504 0.0527-1.0019 0-1.5234-0.53907-0.5215-0.53906-0.5215-1.7285v-3.4805h-0.7441v-0.92578h0.7441v-1.8809h1.1016v1.8809h2.2734v0.92578h-2.2734v2.9824q0 0.51563 0.023 0.80859 0.023 0.28711 0.1641 0.53907 0.1289 0.23437 0.3515 0.3457 0.2285 0.10547 0.6914 0.10547 0.2696 0 0.5625-0.0762 0.293-0.082 0.4219-0.13477h0.059z"/>
    <path d="m1323.6 917.74h-4.8223q0 0.60351 0.1816 1.0547 0.1817 0.44532 0.4981 0.73243 0.3047 0.28125 0.7207 0.42187 0.4219 0.14063 0.9258 0.14063 0.6679 0 1.3418-0.26368 0.6796-0.26953 0.9668-0.52734h0.059v1.2012q-0.5566 0.23438-1.1367 0.39258-0.58 0.1582-1.2187 0.1582-1.6289 0-2.543-0.8789-0.9141-0.88477-0.9141-2.5078 0-1.6055 0.8731-2.5488 0.8789-0.94336 2.3086-0.94336 1.3242 0 2.0391 0.77343 0.7207 0.77344 0.7207 2.1973zm-1.0723-0.84375q-0.01-0.86719-0.4395-1.3418-0.4277-0.47461-1.3066-0.47461-0.8848 0-1.4121 0.52148-0.5215 0.52149-0.5918 1.2949zm0.2871-5.8184-1.3359 2.2207h-1.3301l-1.336-2.2207h0.9317l1.084 1.5 1.0781-1.5z"/>
    <path d="m1330 920.9h-5.2852v-0.81445l3.8145-4.8106h-3.7325v-0.91992h5.1036v0.78515l-3.8321 4.8281h3.9317z"/>
    <path d="m1337 920.9h-1.1015v-0.72656q-0.5567 0.43945-1.0664 0.67382-0.5098 0.23438-1.125 0.23438-1.0313 0-1.6055-0.62695-0.5742-0.63282-0.5742-1.8516v-4.248h1.1016v3.7266q0 0.49805 0.047 0.85547 0.047 0.35156 0.1992 0.60351 0.1582 0.25782 0.4102 0.375 0.252 0.11719 0.7324 0.11719 0.4278 0 0.9317-0.22265 0.5097-0.22266 0.9492-0.56836v-4.8867h1.1015zm-0.6445-9.5508q0 0.83789-0.5976 1.418-0.5977 0.58007-1.4532 0.58007-0.8437 0-1.4472-0.57421-0.6035-0.58008-0.6035-1.4238 0-0.83789 0.5976-1.4121 0.5977-0.57422 1.4531-0.57422 0.8614 0 1.4532 0.57422 0.5976 0.57422 0.5976 1.4121zm-0.8496 0q0-0.50391-0.3457-0.84961-0.3398-0.35156-0.8555-0.35156-0.5156 0-0.8613 0.3457-0.3398 0.3457-0.3398 0.85547 0 0.50976 0.3457 0.85547 0.3457 0.3457 0.8554 0.3457 0.5157 0 0.8555-0.3457 0.3457-0.34571 0.3457-0.85547z"/>
   </g>
  </g>
  <path d="m1138.8 843.2v-75" fill="none" stroke="#212121" stroke-dasharray="1, 2"/>
  <path d="m1058.8 843.2v-45" fill="none" stroke="#212121" stroke-dasharray="1, 2"/>
  <g>
   <path d="m1055.8 758.2 0.1853 28.575 5.625 5.04 77.19 0.18533v-28.76l-5.625-5.04z" fill="#383731"/>
   <path d="m1053.8 756.2v28.76l5.625 5.04h77.375v-28.76l-5.625-5.04z" fill="#fff29b"/>
   <g fill="#393939" stroke-linecap="round" aria-label="Game Quiz">
    <path d="m1086.7 769.26q-0.7148 0.32812-1.5644 0.57422-0.8438 0.24023-1.6348 0.24023-1.0195 0-1.8691-0.28125t-1.4473-0.84375q-0.6035-0.56836-0.9316-1.418-0.3282-0.85547-0.3282-1.998 0-2.0918 1.2188-3.2988 1.2246-1.2129 3.3574-1.2129 0.7441 0 1.5176 0.18164 0.7793 0.17578 1.6758 0.60351v1.377h-0.1055q-0.1816-0.14063-0.5273-0.36914-0.3458-0.22852-0.6797-0.38086-0.4043-0.18164-0.92-0.29883-0.5097-0.12305-1.1601-0.12305-1.4649 0-2.3203 0.94336-0.8496 0.9375-0.8496 2.543 0 1.6934 0.8906 2.6367 0.8906 0.9375 2.4258 0.9375 0.5625 0 1.1191-0.11133 0.5625-0.11133 0.9844-0.28711v-2.1387h-2.3379v-1.0195h3.4863z"/>
    <path d="m1093.8 769.9h-1.0957v-0.69727q-0.1465 0.0996-0.3984 0.28125-0.2461 0.17578-0.4805 0.28125-0.2754 0.13477-0.6328 0.22266-0.3574 0.0937-0.8379 0.0937-0.8848 0-1.5-0.58594t-0.6152-1.4941q0-0.74414 0.3164-1.2012 0.3222-0.46289 0.914-0.72656 0.5977-0.26367 1.4356-0.35742 0.8379-0.0937 1.7988-0.14063v-0.16992q0-0.375-0.1348-0.6211-0.1289-0.24609-0.375-0.38671-0.2343-0.13477-0.5625-0.18164-0.3281-0.0469-0.6855-0.0469-0.4336 0-0.9668 0.11719-0.5332 0.11133-1.1016 0.32812h-0.059v-1.1191q0.3223-0.0879 0.9317-0.19336 0.6094-0.10547 1.2012-0.10547 0.6914 0 1.2011 0.11719 0.5157 0.11133 0.8907 0.38672 0.3691 0.26953 0.5625 0.69727 0.1933 0.42773 0.1933 1.0605zm-1.0957-1.6113v-1.8223q-0.5039 0.0293-1.1894 0.0879-0.6797 0.0586-1.0782 0.16992-0.4746 0.13476-0.7675 0.42187-0.293 0.28125-0.293 0.7793 0 0.5625 0.3398 0.84961 0.3399 0.28125 1.0371 0.28125 0.5801 0 1.0606-0.22266 0.4805-0.22851 0.8906-0.54492z"/>
    <path d="m1105.4 769.9h-1.1016v-3.7266q0-0.42188-0.041-0.81446-0.035-0.39257-0.1582-0.62695-0.1347-0.25195-0.3867-0.38086-0.2519-0.12891-0.7266-0.12891-0.4628 0-0.9257 0.23438-0.4629 0.22852-0.9258 0.58594 0.018 0.13476 0.029 0.3164 0.012 0.17578 0.012 0.35157v4.1894h-1.1016v-3.7266q0-0.4336-0.041-0.82032-0.035-0.39257-0.1582-0.62695-0.1347-0.25195-0.3867-0.375-0.252-0.12891-0.7266-0.12891-0.4511 0-0.9082 0.22266-0.4511 0.22266-0.9023 0.56836v4.8867h-1.1016v-6.5449h1.1016v0.72656q0.5156-0.42773 1.0254-0.66797 0.5156-0.24023 1.0957-0.24023 0.668 0 1.1308 0.28125 0.4688 0.28125 0.6973 0.77929 0.668-0.5625 1.2188-0.80859 0.5507-0.25195 1.1777-0.25195 1.0781 0 1.5879 0.65625 0.5156 0.65039 0.5156 1.8223z"/>
    <path d="m1113 766.74h-4.8222q0 0.60351 0.1816 1.0547 0.1816 0.44532 0.498 0.73243 0.3047 0.28125 0.7207 0.42187 0.4219 0.14063 0.9258 0.14063 0.668 0 1.3418-0.26368 0.6797-0.26953 0.9668-0.52734h0.059v1.2012q-0.5566 0.23438-1.1367 0.39258t-1.2188 0.1582q-1.6289 0-2.5429-0.8789-0.9141-0.88477-0.9141-2.5078 0-1.6055 0.8731-2.5488 0.8789-0.94336 2.3086-0.94336 1.3242 0 2.039 0.77343 0.7207 0.77344 0.7207 2.1973zm-1.0722-0.84375q-0.01-0.86719-0.4395-1.3418-0.4277-0.47461-1.3066-0.47461-0.8848 0-1.4122 0.52148-0.5214 0.52149-0.5917 1.2949z"/>
    <path d="m1091.6 787.04q-0.3516 0.0879-0.6973 0.12305-0.3398 0.041-0.6972 0.041-1.0196 0-1.6407-0.5625-0.6152-0.55664-0.6679-1.5996-0.1407 0.0234-0.2754 0.0293-0.1289 0.0117-0.252 0.0117-0.9199 0-1.6758-0.30469-0.75-0.30469-1.2773-0.88476-0.5274-0.58008-0.8145-1.4238-0.2812-0.84375-0.2812-1.9277 0-1.0664 0.2812-1.9102 0.2813-0.84961 0.8204-1.4531 0.5156-0.57422 1.2773-0.8789 0.7676-0.30469 1.6699-0.30469 0.9375 0 1.6817 0.31055 0.75 0.30468 1.2714 0.87304 0.5332 0.58594 0.8145 1.4356 0.2871 0.84961 0.2871 1.9277 0 1.5996-0.6562 2.6953-0.6504 1.0957-1.752 1.5352 0.023 0.66797 0.3164 1.0371 0.293 0.36914 1.0664 0.36914 0.2402 0 0.5684-0.0762 0.334-0.0703 0.4746-0.12891h0.1582zm-1.3828-6.498q0-1.6992-0.7617-2.6191-0.7618-0.92578-2.0801-0.92578-1.3301 0-2.0918 0.92578-0.7559 0.91993-0.7559 2.6191 0 1.7168 0.7735 2.6309 0.7734 0.90821 2.0742 0.90821t2.0683-0.90821q0.7735-0.91406 0.7735-2.6309z"/>
    <path d="m1098.6 784.9h-1.1015v-0.72656q-0.5567 0.43945-1.0664 0.67382-0.5098 0.23438-1.125 0.23438-1.0313 0-1.6055-0.62695-0.5742-0.63282-0.5742-1.8516v-4.248h1.1015v3.7266q0 0.49805 0.047 0.85547 0.047 0.35156 0.1992 0.60351 0.1582 0.25782 0.4102 0.375 0.2519 0.11719 0.7324 0.11719 0.4278 0 0.9317-0.22265 0.5097-0.22266 0.9492-0.56836v-4.8867h1.1015z"/>
    <path d="m1101.9 777.26h-1.2422v-1.1426h1.2422zm-0.07 7.6406h-1.1016v-6.5449h1.1016z"/>
    <path d="m1108.8 784.9h-5.2852v-0.81445l3.8145-4.8106h-3.7324v-0.91992h5.1035v0.78515l-3.8321 4.8281h3.9317z"/>
   </g>
  </g>
  <path d="m1018.6 944.58h-60.262l-4e-4 -101.86h60.476" fill="none" stroke="#212121" stroke-dasharray="1, 2"/>
  <g>
   <path d="m876.29 874.2 0.1853 28.575 5.625 5.04 77.19 0.18533v-28.76l-5.625-5.04z" fill="#383731"/>
   <path d="m874.29 872.2v28.76l5.625 5.04h77.375v-28.76l-5.625-5.04z" fill="#fff29b"/>
   <g fill="#393939" stroke-linecap="round" aria-label="Noční Režim">
    <path d="m907.6 885.9h-1.4356l-4.1367-7.8047v7.8047h-1.084v-8.7246h1.7988l3.7734 7.125v-7.125h1.084z"/>
    <path d="m915.41 882.63q0 1.5996-0.82031 2.5254t-2.1973 0.92578q-1.3887 0-2.209-0.92578-0.81445-0.92578-0.81445-2.5254t0.81445-2.5254q0.82031-0.93164 2.209-0.93164 1.377 0 2.1973 0.93164 0.82031 0.92578 0.82031 2.5254zm-1.1367 0q0-1.2715-0.49804-1.8867-0.49805-0.62109-1.3828-0.62109-0.89649 0-1.3945 0.62109-0.49218 0.61523-0.49218 1.8867 0 1.2305 0.49804 1.8691 0.49805 0.63281 1.3887 0.63281 0.8789 0 1.377-0.62695 0.5039-0.63281 0.5039-1.875z"/>
    <path d="m921.96 885.49q-0.55078 0.26367-1.0488 0.41016-0.49219 0.14648-1.0488 0.14648-0.70899 0-1.3008-0.20507-0.5918-0.21094-1.0137-0.63282-0.42774-0.42187-0.66211-1.0664-0.23438-0.64453-0.23438-1.5059 0-1.6055 0.87891-2.5195 0.88476-0.91407 2.332-0.91407 0.5625 0 1.1016 0.15821 0.54492 0.1582 0.99609 0.38672v1.2246h-0.0586q-0.50391-0.39257-1.043-0.60351-0.5332-0.21094-1.043-0.21094-0.9375 0-1.4824 0.63281-0.53906 0.62696-0.53906 1.8457 0 1.1836 0.52734 1.8223 0.53321 0.63282 1.4941 0.63282 0.33399 0 0.67969-0.0879t0.62109-0.22851q0.24024-0.12305 0.45118-0.25781 0.21093-0.14063 0.33398-0.24024h0.0586zm-0.1875-9.4102-1.3359 2.2207h-1.3301l-1.3359-2.2207h0.93164l1.084 1.5 1.0781-1.5z"/>
    <path d="m928.85 885.9h-1.1016v-3.7266q0-0.45118-0.0527-0.84375-0.0527-0.39844-0.19336-0.6211-0.14648-0.24609-0.42187-0.36328-0.27539-0.12305-0.71485-0.12305-0.45117 0-0.94335 0.22266-0.49219 0.22266-0.94336 0.56836v4.8867h-1.1016v-6.5449h1.1016v0.72656q0.51562-0.42773 1.0664-0.66797 0.55078-0.24023 1.1309-0.24023 1.0606 0 1.6172 0.63867t0.55664 1.8398z"/>
    <path d="m932.08 885.9h-1.1016v-6.5449h1.1016zm1.2129-9.8203-1.5996 2.1914h-0.87305l1.0488-2.1914z"/>
    <path d="m906.62 900.9h-1.5059l-2.918-3.4688h-1.6348v3.4688h-1.1602v-8.7246h2.4434q0.79102 0 1.3184 0.10547 0.52734 0.0996 0.94922 0.36328 0.47461 0.29883 0.73828 0.75586 0.26953 0.45117 0.26953 1.1484 0 0.94336-0.47461 1.582-0.47461 0.63281-1.3066 0.95508zm-2.7129-6.2695q0-0.375-0.13477-0.66211-0.1289-0.29297-0.43359-0.49219-0.25195-0.16992-0.59766-0.23437-0.3457-0.0703-0.81445-0.0703h-1.3652v3.293h1.1719q0.55078 0 0.96094-0.0937 0.41016-0.0996 0.69726-0.36328 0.26368-0.24609 0.38672-0.5625 0.12891-0.32226 0.12891-0.81445z"/>
    <path d="m912.86 897.74h-4.8223q0 0.60351 0.18164 1.0547 0.18164 0.44532 0.49805 0.73243 0.30468 0.28125 0.7207 0.42187 0.42188 0.14063 0.92578 0.14063 0.66797 0 1.3418-0.26368 0.67969-0.26953 0.9668-0.52734h0.0586v1.2012q-0.55664 0.23438-1.1367 0.39258t-1.2188 0.1582q-1.6289 0-2.543-0.8789-0.91406-0.88477-0.91406-2.5078 0-1.6055 0.87305-2.5488 0.8789-0.94336 2.3086-0.94336 1.3242 0 2.0391 0.77343 0.72071 0.77344 0.72071 2.1973zm-1.0723-0.84375q-6e-3 -0.86719-0.43945-1.3418-0.42774-0.47461-1.3066-0.47461-0.88477 0-1.4121 0.52148-0.52149 0.52149-0.5918 1.2949z"/>
    <path d="m919.27 900.9h-5.2852v-0.81445l3.8145-4.8106h-3.7324v-0.91992h5.1035v0.78515l-3.832 4.8281h3.9316zm-0.66797-9.8203-1.3359 2.2207h-1.3301l-1.3359-2.2207h0.93164l1.084 1.5 1.0781-1.5z"/>
    <path d="m922.02 893.26h-1.2422v-1.1426h1.2422zm-0.0703 7.6406h-1.1016v-6.5449h1.1016z"/>
    <path d="m933.69 900.9h-1.1016v-3.7266q0-0.42188-0.041-0.81446-0.0352-0.39257-0.15821-0.62695-0.13476-0.25195-0.38672-0.38086-0.25195-0.12891-0.72656-0.12891-0.46289 0-0.92578 0.23438-0.46289 0.22852-0.92578 0.58594 0.0176 0.13476 0.0293 0.3164 0.0117 0.17578 0.0117 0.35157v4.1894h-1.1016v-3.7266q0-0.4336-0.041-0.82032-0.0352-0.39257-0.15821-0.62695-0.13476-0.25195-0.38672-0.375-0.25195-0.12891-0.72656-0.12891-0.45117 0-0.9082 0.22266-0.45117 0.22266-0.90235 0.56836v4.8867h-1.1016v-6.5449h1.1016v0.72656q0.51563-0.42773 1.0254-0.66797 0.51562-0.24023 1.0957-0.24023 0.66797 0 1.1309 0.28125 0.46875 0.28125 0.69726 0.77929 0.66797-0.5625 1.2188-0.80859 0.55078-0.25195 1.1777-0.25195 1.0781 0 1.5879 0.65625 0.51562 0.65039 0.51562 1.8223z"/>
   </g>
  </g>
  <path d="m1358.5 844.58h60.262l4e-4 -101.86h-60.476" fill="none" stroke="#212121" stroke-dasharray="1, 2"/>
  <path d="m1278.8 743.2v-45" fill="none" stroke="#212121" stroke-dasharray="1, 2"/>
  <path d="m1239.8 654.2 0.1853 28.575 5.625 5.04 77.19 0.18533v-28.76l-5.625-5.04z" fill="#383731"/>
  <g>
   <path d="m1017.8 743.2h340c11.785 0 30.49 14.112 35 25 6.3781 15.398 6.3781 34.602 0 50-4.51 10.888-23.215 25-35 25h-336c-26.766 0-42.622 26.989-42.784 50-0.58544 22.861 16.018 50 42.784 50h257" fill="none" stroke="#212121" stroke-width="2"/>
   <g transform="matrix(.016012 0 0 .016286 998.66 738.91)" fill="#212121" stroke-miterlimit="40" stroke-width="61.925">
    <g fill="#212121" stroke-miterlimit="40" stroke-width="61.924">
     <path d="m486.41 221.41-364.07-208.5c-52.938-30.318-95.852-5.44-95.852 55.563v415.65c0 61.004 42.914 85.882 95.852 55.563l364.07-208.49c52.938-30.317 52.938-79.473 0-109.79z" fill="#212121" stroke-miterlimit="40" stroke-width="61.924"/>
    </g>
   </g>
   <g fill="#bb2446" stroke-linecap="round" aria-label="Pátek">
    <path d="m1007.2 754.06q0 0.67676-0.2393 1.2578-0.2324 0.57421-0.6562 0.99804-0.5264 0.52637-1.2442 0.79297-0.7177 0.25977-1.8115 0.25977h-1.3535v3.7939h-1.3535v-10.179h2.7617q0.916 0 1.5518 0.15723 0.6357 0.15039 1.1279 0.47851 0.5811 0.38965 0.8955 0.97071 0.3213 0.58105 0.3213 1.4697zm-1.4082 0.0342q0-0.52636-0.1846-0.91601-0.1845-0.38965-0.5605-0.63575-0.3281-0.21191-0.752-0.30078-0.417-0.0957-1.0595-0.0957h-1.3399v4.0674h1.1416q0.8203 0 1.333-0.14355 0.5127-0.15039 0.834-0.47168 0.3213-0.32813 0.4512-0.69043 0.1367-0.36231 0.1367-0.81348z"/>
    <path d="m1014.8 761.16h-1.2784v-0.81347q-0.1709 0.11621-0.4648 0.32812-0.2871 0.20508-0.5605 0.32813-0.3213 0.15722-0.7383 0.25976-0.417 0.10938-0.9776 0.10938-1.0322 0-1.75-0.6836-0.7177-0.68359-0.7177-1.7432 0-0.86817 0.3691-1.4014 0.376-0.54004 1.0664-0.84766 0.6973-0.30761 1.6748-0.41699 0.9776-0.10937 2.0986-0.16406v-0.19824q0-0.4375-0.1572-0.72461-0.1504-0.28711-0.4375-0.45117-0.2734-0.15723-0.6562-0.21192-0.3828-0.0547-0.7998-0.0547-0.5059 0-1.128 0.13671-0.622 0.12989-1.2851 0.38282h-0.068v-1.3056q0.376-0.10254 1.0869-0.22558 0.711-0.12305 1.4014-0.12305 0.8066 0 1.4014 0.13672 0.6015 0.12988 1.039 0.45117 0.4307 0.31445 0.6563 0.81348 0.2256 0.49902 0.2256 1.2373zm-1.2784-1.8799v-2.126q-0.5878 0.0342-1.3876 0.10254-0.793 0.0684-1.2579 0.19824-0.5537 0.15723-0.8955 0.49219-0.3418 0.32813-0.3418 0.90918 0 0.65625 0.3965 0.99121 0.3965 0.32813 1.21 0.32813 0.6767 0 1.2373-0.25977 0.5605-0.2666 1.039-0.63574zm0.4649-9.5772-1.8662 2.5566h-1.0186l1.2237-2.5566z"/>
    <path d="m1021.3 761.09q-0.3623 0.0957-0.793 0.15723-0.4238 0.0615-0.7588 0.0615-1.1689 0-1.7773-0.6289-0.6084-0.62891-0.6084-2.0166v-4.0605h-0.8682v-1.0801h0.8682v-2.1943h1.2851v2.1943h2.6524v1.0801h-2.6524v3.4795q0 0.60156 0.027 0.94336 0.027 0.33496 0.1914 0.62891 0.1504 0.27343 0.4102 0.40332 0.2666 0.12304 0.8066 0.12304 0.3144 0 0.6562-0.0889 0.3418-0.0957 0.4922-0.15723h0.068z"/>
    <path d="m1029.2 757.48h-5.626q0 0.7041 0.2119 1.2305 0.2119 0.51953 0.5811 0.85449 0.3554 0.32813 0.8408 0.49219 0.4922 0.16406 1.0801 0.16406 0.7793 0 1.5654-0.30761 0.793-0.31446 1.1279-0.61524h0.068v1.4014q-0.6494 0.27344-1.3262 0.45801-0.6767 0.18457-1.4219 0.18457-1.9003 0-2.9667-1.0254-1.0665-1.0322-1.0665-2.9258 0-1.873 1.0186-2.9736 1.0254-1.1006 2.6934-1.1006 1.5449 0 2.3789 0.90234 0.8408 0.90234 0.8408 2.5635zm-1.251-0.98437q-0.01-1.0117-0.5127-1.5654-0.499-0.55371-1.5244-0.55371-1.0322 0-1.6475 0.60839-0.6084 0.6084-0.6904 1.5108z"/>
    <path d="m1038.1 761.16h-1.6953l-3.0625-3.3428-0.834 0.79297v2.5498h-1.2852v-10.637h1.2852v6.8223l3.7119-3.8213h1.6201l-3.5478 3.5273z"/>
   </g>
  </g>
  <path d="m1238.8 743.2v-75" fill="none" stroke="#212121" stroke-dasharray="1, 2"/>
  <g>
   <path d="m1237.8 652.2v28.76l5.625 5.04h77.375v-28.76l-5.625-5.04z" fill="#fff29b"/>
   <g fill="#393939" stroke-linecap="round" aria-label="Úvodní Slovo">
    <path d="m1267 662.4q0 0.94922-0.2109 1.6582-0.2051 0.70312-0.6797 1.1719-0.4512 0.44531-1.0547 0.65039t-1.4062 0.20508q-0.8203 0-1.4297-0.2168-0.6094-0.21679-1.0254-0.63867-0.4746-0.48047-0.6855-1.1602-0.2051-0.67968-0.2051-1.6699v-5.2207h1.1601v5.2793q0 0.70898 0.094 1.1191 0.1 0.41015 0.3281 0.74414 0.2578 0.38086 0.6973 0.57422 0.4453 0.19336 1.0664 0.19336 0.6269 0 1.0664-0.1875 0.4394-0.19336 0.7031-0.58008 0.2285-0.33399 0.3223-0.76172 0.1-0.43359 0.1-1.0723v-5.3086h1.1601zm-1.4531-8.502-1.5996 2.1914h-0.873l1.0488-2.1914z"/>
    <path d="m1274.8 659.35-2.6484 6.5449h-1.1074l-2.6309-6.5449h1.1953l2.0274 5.209 2.0097-5.209z"/>
    <path d="m1281.7 662.63q0 1.5996-0.8203 2.5254t-2.1973 0.92578q-1.3887 0-2.209-0.92578-0.8144-0.92578-0.8144-2.5254t0.8144-2.5254q0.8203-0.93164 2.209-0.93164 1.377 0 2.1973 0.93164 0.8203 0.92578 0.8203 2.5254zm-1.1367 0q0-1.2715-0.4981-1.8867-0.498-0.62109-1.3828-0.62109-0.8965 0-1.3945 0.62109-0.4922 0.61523-0.4922 1.8867 0 1.2305 0.498 1.8691 0.4981 0.63281 1.3887 0.63281 0.8789 0 1.377-0.62695 0.5039-0.63281 0.5039-1.875z"/>
    <path d="m1288.7 665.9h-1.1015v-0.68555q-0.4746 0.41016-0.9903 0.63867-0.5156 0.22852-1.1191 0.22852-1.1719 0-1.8633-0.90234-0.6855-0.90235-0.6855-2.502 0-0.83203 0.2343-1.4824 0.2403-0.65039 0.6446-1.1074 0.3984-0.44531 0.9257-0.67969 0.5333-0.23437 1.1016-0.23437 0.5156 0 0.9141 0.11132 0.3984 0.10547 0.8379 0.33399v-2.8359h1.1015zm-1.1015-1.6113v-3.7559q-0.4453-0.19922-0.7969-0.27539-0.3516-0.0762-0.7676-0.0762-0.9258 0-1.4414 0.64453t-0.5156 1.8281q0 1.166 0.3984 1.7754 0.3985 0.60351 1.2774 0.60351 0.4687 0 0.9492-0.20508 0.4804-0.21093 0.8965-0.53906z"/>
    <path d="m1296.3 665.9h-1.1016v-3.7266q0-0.45118-0.053-0.84375-0.053-0.39844-0.1934-0.6211-0.1465-0.24609-0.4219-0.36328-0.2754-0.12305-0.7148-0.12305-0.4512 0-0.9434 0.22266t-0.9433 0.56836v4.8867h-1.1016v-6.5449h1.1016v0.72656q0.5156-0.42773 1.0664-0.66797 0.5507-0.24023 1.1308-0.24023 1.0606 0 1.6172 0.63867 0.5567 0.63867 0.5567 1.8398z"/>
    <path d="m1299.6 665.9h-1.1015v-6.5449h1.1015zm1.2129-9.8203-1.5996 2.1914h-0.873l1.0488-2.1914z"/>
    <path d="m1271 678.41q0 0.50977-0.2402 1.0078-0.2344 0.49804-0.6621 0.84375-0.4688 0.375-1.0957 0.58593-0.6211 0.21094-1.5 0.21094-0.9434 0-1.6993-0.17578-0.75-0.17578-1.5293-0.52148v-1.4531h0.082q0.6621 0.55078 1.5293 0.84961t1.6289 0.29883q1.0781 0 1.6758-0.4043 0.6035-0.40429 0.6035-1.0781 0-0.58008-0.2871-0.85547-0.2813-0.27539-0.8614-0.42774-0.4394-0.11718-0.955-0.19336-0.5098-0.0762-1.084-0.19335-1.1602-0.2461-1.7227-0.8379-0.5566-0.59765-0.5566-1.5527 0-1.0957 0.9258-1.793 0.9257-0.70312 2.3496-0.70312 0.9199 0 1.6875 0.17578 0.7675 0.17578 1.3593 0.43359v1.3711h-0.082q-0.498-0.42188-1.3125-0.69727-0.8086-0.28125-1.6582-0.28125-0.9316 0-1.5 0.38672-0.5625 0.38672-0.5625 0.99609 0 0.54492 0.2813 0.85547 0.2812 0.31055 0.9902 0.47461 0.375 0.082 1.0664 0.19922 0.6914 0.11719 1.1719 0.24023 0.9726 0.25782 1.4648 0.7793t0.4922 1.459z"/>
    <path d="m1273.9 680.9h-1.1016v-9.1172h1.1016z"/>
    <path d="m1281.6 677.63q0 1.5996-0.8203 2.5254t-2.1973 0.92578q-1.3886 0-2.209-0.92578-0.8144-0.92578-0.8144-2.5254t0.8144-2.5254q0.8204-0.93164 2.209-0.93164 1.377 0 2.1973 0.93164 0.8203 0.92578 0.8203 2.5254zm-1.1367 0q0-1.2715-0.4981-1.8867-0.498-0.62109-1.3828-0.62109-0.8965 0-1.3945 0.62109-0.4922 0.61523-0.4922 1.8867 0 1.2305 0.4981 1.8691 0.498 0.63281 1.3886 0.63281 0.8789 0 1.377-0.62695 0.5039-0.63281 0.5039-1.875z"/>
    <path d="m1288.9 674.35-2.6484 6.5449h-1.1074l-2.6309-6.5449h1.1953l2.0274 5.209 2.0097-5.209z"/>
    <path d="m1295.8 677.63q0 1.5996-0.8203 2.5254t-2.1973 0.92578q-1.3886 0-2.2089-0.92578-0.8145-0.92578-0.8145-2.5254t0.8145-2.5254q0.8203-0.93164 2.2089-0.93164 1.377 0 2.1973 0.93164 0.8203 0.92578 0.8203 2.5254zm-1.1367 0q0-1.2715-0.498-1.8867-0.4981-0.62109-1.3829-0.62109-0.8964 0-1.3945 0.62109-0.4922 0.61523-0.4922 1.8867 0 1.2305 0.4981 1.8691 0.498 0.63281 1.3886 0.63281 0.879 0 1.377-0.62695 0.5039-0.63281 0.5039-1.875z"/>
   </g>
   <circle cx="1018.8" cy="743.2" r="5.085" fill="#bb2446"/>
   <circle cx="1358.8" cy="743.2" r="5.085" fill="#bb2446"/>
   <circle cx="1358.8" cy="843.2" r="5.085" fill="#2524bb"/>
   <circle cx="1018.8" cy="843.2" r="5.085" fill="#2524bb"/>
   <circle cx="1018.8" cy="943.2" r="5.085" fill="#146a27"/>
   <g fill="#2524bb" stroke-linecap="round" aria-label="Sobota">
    <path d="m1339.8 794.26q0 0.59473-0.2803 1.1758-0.2734 0.58105-0.7724 0.98437-0.5469 0.4375-1.2784 0.6836-0.7246 0.24609-1.75 0.24609-1.1005 0-1.9824-0.20508-0.875-0.20507-1.7842-0.60839v-1.6953h0.096q0.7725 0.64258 1.7842 0.99121 1.0117 0.34864 1.9004 0.34864 1.2578 0 1.9551-0.47168 0.7041-0.47168 0.7041-1.2578 0-0.67675-0.335-0.99804-0.3281-0.32129-1.0049-0.49903-0.5126-0.13671-1.1142-0.22558-0.5947-0.0889-1.2647-0.22559-1.3535-0.28711-2.0097-0.97754-0.6494-0.69726-0.6494-1.8115 0-1.2783 1.08-2.0918 1.0801-0.82031 2.7413-0.82031 1.0732 0 1.9687 0.20508t1.5859 0.50586v1.5996h-0.096q-0.581-0.49219-1.5312-0.81348-0.9434-0.32812-1.9346-0.32812-1.0869 0-1.75 0.45117-0.6562 0.45117-0.6562 1.1621 0 0.63574 0.3281 0.99804 0.3281 0.36231 1.1553 0.55372 0.4375 0.0957 1.2441 0.23242t1.3672 0.28027q1.1348 0.30078 1.709 0.90918t0.5742 1.7022z"/>
    <path d="m1348.4 793.35q0 1.8662-0.957 2.9463-0.9571 1.0801-2.5635 1.0801-1.6201 0-2.5772-1.0801-0.9502-1.0801-0.9502-2.9463t0.9502-2.9463q0.9571-1.0869 2.5772-1.0869 1.6064 0 2.5635 1.0869 0.957 1.0801 0.957 2.9463zm-1.3262 0q0-1.4834-0.581-2.2012-0.5811-0.72461-1.6133-0.72461-1.0459 0-1.627 0.72461-0.5742 0.71777-0.5742 2.2012 0 1.4356 0.5811 2.1807 0.581 0.73828 1.6201 0.73828 1.0254 0 1.6064-0.73144 0.5879-0.73828 0.5879-2.1875z"/>
    <path d="m1357.1 793.29q0 0.95703-0.2734 1.7226-0.2666 0.76563-0.7246 1.2852-0.4854 0.54004-1.0664 0.81347-0.5811 0.26661-1.2784 0.26661-0.6494 0-1.1347-0.15723-0.4854-0.15039-0.9571-0.41016l-0.082 0.35547h-1.2031v-10.637h1.2851v3.8008q0.5401-0.44433 1.1485-0.7246 0.6084-0.28711 1.3672-0.28711 1.3535 0 2.1328 1.0391 0.7861 1.0391 0.7861 2.9326zm-1.3262 0.0342q0-1.3672-0.4511-2.0713-0.4512-0.71094-1.4561-0.71094-0.5605 0-1.1347 0.24609-0.5743 0.23926-1.0665 0.62207v4.375q0.5469 0.2461 0.9366 0.3418 0.3965 0.0957 0.8955 0.0957 1.0664 0 1.6679-0.69726 0.6084-0.7041 0.6084-2.2012z"/>
    <path d="m1365.6 793.35q0 1.8662-0.9571 2.9463-0.957 1.0801-2.5634 1.0801-1.6202 0-2.5772-1.0801-0.9502-1.0801-0.9502-2.9463t0.9502-2.9463q0.957-1.0869 2.5772-1.0869 1.6064 0 2.5634 1.0869 0.9571 1.0801 0.9571 2.9463zm-1.3262 0q0-1.4834-0.5811-2.2012-0.581-0.72461-1.6132-0.72461-1.0459 0-1.627 0.72461-0.5742 0.71777-0.5742 2.2012 0 1.4356 0.581 2.1807 0.5811 0.73828 1.6202 0.73828 1.0253 0 1.6064-0.73144 0.5879-0.73828 0.5879-2.1875z"/>
    <path d="m1371.6 797.09q-0.3623 0.0957-0.793 0.15723-0.4238 0.0615-0.7588 0.0615-1.1689 0-1.7773-0.6289-0.6084-0.62891-0.6084-2.0166v-4.0605h-0.8682v-1.0801h0.8682v-2.1943h1.2852v2.1943h2.6523v1.0801h-2.6523v3.4795q0 0.60156 0.027 0.94336 0.027 0.33496 0.1914 0.62891 0.1504 0.27343 0.4102 0.40332 0.2666 0.12304 0.8066 0.12304 0.3145 0 0.6563-0.0889 0.3417-0.0957 0.4921-0.15723h0.068z"/>
    <path d="m1379.1 797.16h-1.2783v-0.81347q-0.1709 0.11621-0.4649 0.32812-0.2871 0.20508-0.5605 0.32813-0.3213 0.15722-0.7383 0.25976-0.417 0.10938-0.9775 0.10938-1.0323 0-1.75-0.6836-0.7178-0.68359-0.7178-1.7432 0-0.86817 0.3691-1.4014 0.376-0.54004 1.0664-0.84766 0.6973-0.30761 1.6748-0.41699 0.9776-0.10937 2.0987-0.16406v-0.19824q0-0.4375-0.1573-0.72461-0.1504-0.28711-0.4375-0.45117-0.2734-0.15723-0.6562-0.21192-0.3828-0.0547-0.7998-0.0547-0.5059 0-1.1279 0.13671-0.6221 0.12989-1.2852 0.38282h-0.068v-1.3056q0.376-0.10254 1.087-0.22558 0.7109-0.12305 1.4013-0.12305 0.8067 0 1.4014 0.13672 0.6015 0.12988 1.039 0.45117 0.4307 0.31445 0.6563 0.81348 0.2256 0.49902 0.2256 1.2373zm-1.2783-1.8799v-2.126q-0.5879 0.0342-1.3877 0.10254-0.793 0.0684-1.2578 0.19824-0.5538 0.15723-0.8956 0.49219-0.3417 0.32813-0.3417 0.90918 0 0.65625 0.3964 0.99121 0.3965 0.32813 1.21 0.32813 0.6768 0 1.2373-0.25977 0.5605-0.2666 1.0391-0.63574z"/>
   </g>
   <g fill="#146a27" stroke-linecap="round" aria-label="Neděle">
    <path d="m1011.8 900.16h-1.6748l-4.8261-9.1055v9.1055h-1.2647v-10.179h2.0986l4.4024 8.3125v-8.3125h1.2646z"/>
    <path d="m1020.8 896.48h-5.626q0 0.7041 0.212 1.2305 0.2119 0.51953 0.581 0.85449 0.3555 0.32813 0.8408 0.49219 0.4922 0.16406 1.0801 0.16406 0.7793 0 1.5654-0.30761 0.793-0.31446 1.128-0.61524h0.068v1.4014q-0.6494 0.27344-1.3261 0.45801-0.6768 0.18457-1.4219 0.18457-1.9004 0-2.9668-1.0254-1.0664-1.0322-1.0664-2.9258 0-1.873 1.0185-2.9736 1.0254-1.1006 2.6934-1.1006 1.5449 0 2.3789 0.90234 0.8408 0.90234 0.8408 2.5635zm-1.251-0.98437q-0.01-1.0117-0.5127-1.5654-0.499-0.55371-1.5244-0.55371-1.0322 0-1.6474 0.60839-0.6084 0.6084-0.6905 1.5108z"/>
    <path d="m1028.9 900.16h-1.2851v-0.7998q-0.5537 0.47851-1.1553 0.74511-0.6016 0.26661-1.3057 0.26661-1.3672 0-2.1738-1.0527-0.7998-1.0527-0.7998-2.9189 0-0.97071 0.2734-1.7295 0.2803-0.75878 0.752-1.292 0.4648-0.51953 1.0801-0.79297 0.622-0.27343 1.2851-0.27343 0.6016 0 1.0664 0.12988 0.4649 0.12305 0.9776 0.38965v-3.3086h1.2851zm-1.2851-1.8799v-4.3818q-0.5196-0.23242-0.9297-0.32129-0.4102-0.0889-0.8955-0.0889-1.0801 0-1.6817 0.75195-0.6015 0.75195-0.6015 2.1328 0 1.3604 0.4648 2.0713 0.4649 0.7041 1.4902 0.7041 0.5469 0 1.1075-0.23925 0.5605-0.2461 1.0459-0.62891z"/>
    <path d="m1037.8 896.48h-5.626q0 0.7041 0.212 1.2305 0.2119 0.51953 0.581 0.85449 0.3555 0.32813 0.8408 0.49219 0.4922 0.16406 1.0801 0.16406 0.7793 0 1.5654-0.30761 0.793-0.31446 1.128-0.61524h0.068v1.4014q-0.6494 0.27344-1.3261 0.45801-0.6768 0.18457-1.4219 0.18457-1.9004 0-2.9668-1.0254-1.0664-1.0322-1.0664-2.9258 0-1.873 1.0185-2.9736 1.0254-1.1006 2.6934-1.1006 1.5449 0 2.3789 0.90234 0.8408 0.90234 0.8408 2.5635zm-1.251-0.98437q-0.01-1.0117-0.5127-1.5654-0.499-0.55371-1.5244-0.55371-1.0322 0-1.6474 0.60839-0.6084 0.6084-0.6905 1.5108zm0.335-6.7881-1.5586 2.5908h-1.5517l-1.5586-2.5908h1.0869l1.2646 1.75 1.2578-1.75z"/>
    <path d="m1041.1 900.16h-1.2852v-10.637h1.2852z"/>
    <path d="m1050 896.48h-5.6259q0 0.7041 0.2119 1.2305 0.2119 0.51953 0.581 0.85449 0.3555 0.32813 0.8408 0.49219 0.4922 0.16406 1.0801 0.16406 0.7793 0 1.5655-0.30761 0.7929-0.31446 1.1279-0.61524h0.068v1.4014q-0.6494 0.27344-1.3261 0.45801-0.6768 0.18457-1.4219 0.18457-1.9004 0-2.9668-1.0254-1.0664-1.0322-1.0664-2.9258 0-1.873 1.0185-2.9736 1.0254-1.1006 2.6934-1.1006 1.5449 0 2.3789 0.90234 0.8408 0.90234 0.8408 2.5635zm-1.2509-0.98437q-0.01-1.0117-0.5127-1.5654-0.4991-0.55371-1.5245-0.55371-1.0322 0-1.6474 0.60839-0.6084 0.6084-0.6904 1.5108z"/>
   </g>
  </g>
  <g fill="#bb2446">
   <circle cx="1038.8" cy="743.2" r="2.333"/>
   <circle cx="1058.8" cy="743.2" r="2.333"/>
   <circle cx="1078.8" cy="743.2" r="2.333"/>
   <circle cx="1098.8" cy="743.2" r="2.333"/>
   <circle cx="1118.8" cy="743.2" r="2.333"/>
   <circle cx="1138.8" cy="743.2" r="2.333"/>
   <circle cx="1158.8" cy="743.2" r="2.333"/>
   <circle cx="1178.8" cy="743.2" r="2.333"/>
   <circle cx="1198.8" cy="743.2" r="2.333"/>
   <circle cx="1218.8" cy="743.2" r="2.333"/>
   <circle cx="1258.8" cy="743.2" r="2.333"/>
   <circle cx="1298.8" cy="743.2" r="2.333"/>
   <circle cx="1318.8" cy="743.2" r="2.333"/>
   <circle cx="1338.8" cy="743.2" r="2.333"/>
   <circle cx="1379.2" cy="752.59" r="2.333"/>
   <circle cx="1391.1" cy="764.67" r="2.333"/>
  </g>
  <g fill="#2524bb">
   <circle cx="1396.4" cy="779.72" r="2.333"/>
   <circle cx="1397.5" cy="797.11" r="2.333"/>
   <circle cx="1380.5" cy="832.98" r="2.333"/>
   <circle cx="1393.6" cy="816.2" r="2.333"/>
  </g>
  <g fill="#393939" stroke-linecap="round">
   <g aria-label="16:00">
    <path d="m1227 761.16h-4.7226v-0.89062h1.8164v-5.8477h-1.8164v-0.79687q0.3691 0 0.791-0.0586 0.4218-0.0645 0.6386-0.18164 0.2696-0.14648 0.4219-0.36914 0.1582-0.22851 0.1817-0.60937h0.9082v7.8633h1.7812z"/>
    <path d="m1235.3 758.33q0 1.3301-0.8789 2.1738-0.8731 0.83789-2.1445 0.83789-0.6446 0-1.1719-0.19922-0.5274-0.19921-0.9317-0.59179-0.5039-0.48633-0.7793-1.2891-0.2695-0.80273-0.2695-1.9336 0-1.1602 0.2461-2.0566 0.252-0.89648 0.7969-1.5938 0.5156-0.66211 1.3301-1.0312 0.8144-0.375 1.8984-0.375 0.3457 0 0.5801 0.0293 0.2343 0.0293 0.4746 0.10547v1.1191h-0.059q-0.1641-0.0879-0.4981-0.16407-0.3281-0.082-0.6738-0.082-1.2598 0-2.0098 0.79102-0.75 0.78515-0.873 2.127 0.4922-0.29883 0.9668-0.45117 0.4805-0.1582 1.1074-0.1582 0.5567 0 0.9785 0.10547 0.4278 0.0996 0.8731 0.41015 0.5156 0.35742 0.7734 0.90235 0.2637 0.54492 0.2637 1.3242zm-1.1895 0.0469q0-0.54492-0.164-0.90234-0.1582-0.35743-0.5274-0.6211-0.2695-0.1875-0.5976-0.24609-0.3281-0.0586-0.6856-0.0586-0.498 0-0.9258 0.11719-0.4277 0.11719-0.8789 0.36328-0.012 0.12891-0.017 0.25196-0.01 0.11718-0.01 0.29882 0 0.92579 0.1875 1.4648 0.1934 0.5332 0.5273 0.84375 0.2696 0.25781 0.5801 0.38086 0.3164 0.11718 0.6856 0.11718 0.8496 0 1.3359-0.51562 0.4863-0.52148 0.4863-1.4941z"/>
    <path d="m1239.4 756.29h-1.4004v-1.6699h1.4004zm0 4.875h-1.4004v-1.6699h1.4004z"/>
    <path d="m1248.3 756.8q0 2.3496-0.7383 3.4512-0.7324 1.0957-2.2792 1.0957-1.5704 0-2.2969-1.1133-0.7207-1.1133-0.7207-3.4219 0-2.3262 0.7324-3.4336 0.7324-1.1133 2.2852-1.1133 1.5703 0 2.291 1.1309 0.7265 1.125 0.7265 3.4043zm-1.541 2.6602q0.2051-0.47461 0.2754-1.1133 0.076-0.64453 0.076-1.5469 0-0.89063-0.076-1.5469-0.07-0.65625-0.2812-1.1133-0.2051-0.45117-0.5625-0.67969-0.3516-0.22851-0.9082-0.22851-0.5508 0-0.9141 0.22851-0.3574 0.22852-0.5684 0.69141-0.1992 0.43359-0.2754 1.1309-0.07 0.69727-0.07 1.5293 0 0.91406 0.064 1.5293 0.064 0.61524 0.2754 1.1016 0.1933 0.45703 0.5449 0.69726 0.3574 0.24024 0.9434 0.24024 0.5507 0 0.914-0.22852t0.5625-0.69141z"/>
    <path d="m1255.9 756.8q0 2.3496-0.7383 3.4512-0.7324 1.0957-2.2793 1.0957-1.5703 0-2.2969-1.1133-0.7207-1.1133-0.7207-3.4219 0-2.3262 0.7324-3.4336 0.7324-1.1133 2.2852-1.1133 1.5703 0 2.291 1.1309 0.7266 1.125 0.7266 3.4043zm-1.5411 2.6602q0.2051-0.47461 0.2754-1.1133 0.076-0.64453 0.076-1.5469 0-0.89063-0.076-1.5469-0.07-0.65625-0.2812-1.1133-0.2051-0.45117-0.5625-0.67969-0.3516-0.22851-0.9082-0.22851-0.5508 0-0.9141 0.22851-0.3574 0.22852-0.5683 0.69141-0.1993 0.43359-0.2754 1.1309-0.07 0.69727-0.07 1.5293 0 0.91406 0.064 1.5293 0.064 0.61524 0.2754 1.1016 0.1934 0.45703 0.5449 0.69726 0.3574 0.24024 0.9434 0.24024 0.5508 0 0.914-0.22852 0.3633-0.22852 0.5625-0.69141z"/>
   </g>
   <g aria-label="18:00">
    <path d="m1267 761.16h-4.7226v-0.89062h1.8164v-5.8477h-1.8164v-0.79687q0.3691 0 0.791-0.0586 0.4218-0.0645 0.6386-0.18164 0.2696-0.14648 0.4219-0.36914 0.1582-0.22851 0.1817-0.60937h0.9082v7.8633h1.7812z"/>
    <path d="m1275.2 758.73q0 1.1309-0.8847 1.8809-0.8789 0.75-2.2149 0.75-1.4179 0-2.2617-0.73242-0.8379-0.73242-0.8379-1.875 0-0.72656 0.4219-1.3125 0.4219-0.5918 1.1894-0.9375v-0.0352q-0.7031-0.375-1.0429-0.82031-0.334-0.44531-0.334-1.1133 0-0.98438 0.8086-1.6406t2.0566-0.65625q1.3067 0 2.086 0.62696 0.7793 0.62695 0.7793 1.5938 0 0.59179-0.3692 1.166-0.3691 0.56836-1.084 0.89063v0.0351q0.8204 0.35157 1.2539 0.86719 0.4336 0.51563 0.4336 1.3125zm-1.3886-4.2598q0-0.62696-0.4864-0.9961-0.4804-0.375-1.2304-0.375-0.7383 0-1.2129 0.35156-0.4688 0.35157-0.4688 0.94922 0 0.42188 0.2344 0.73243 0.2402 0.30468 0.7207 0.54492 0.2168 0.10547 0.6211 0.27539 0.4102 0.16992 0.7969 0.28125 0.5801-0.38672 0.8027-0.80274 0.2227-0.41601 0.2227-0.96093zm0.1816 4.3711q0-0.53906-0.2402-0.86133-0.2344-0.32812-0.9258-0.65625-0.2754-0.1289-0.6035-0.24023t-0.8731-0.31055q-0.5273 0.28711-0.8496 0.7793-0.3164 0.49218-0.3164 1.1133 0 0.79101 0.5449 1.3066 0.545 0.51562 1.3828 0.51562 0.8555 0 1.3653-0.43945 0.5156-0.43945 0.5156-1.207z"/>
    <path d="m1279.4 756.29h-1.4004v-1.6699h1.4004zm0 4.875h-1.4004v-1.6699h1.4004z"/>
    <path d="m1288.3 756.8q0 2.3496-0.7383 3.4512-0.7324 1.0957-2.2792 1.0957-1.5704 0-2.2969-1.1133-0.7207-1.1133-0.7207-3.4219 0-2.3262 0.7324-3.4336 0.7324-1.1133 2.2852-1.1133 1.5703 0 2.291 1.1309 0.7265 1.125 0.7265 3.4043zm-1.541 2.6602q0.2051-0.47461 0.2754-1.1133 0.076-0.64453 0.076-1.5469 0-0.89063-0.076-1.5469-0.07-0.65625-0.2812-1.1133-0.2051-0.45117-0.5625-0.67969-0.3516-0.22851-0.9082-0.22851-0.5508 0-0.9141 0.22851-0.3574 0.22852-0.5684 0.69141-0.1992 0.43359-0.2754 1.1309-0.07 0.69727-0.07 1.5293 0 0.91406 0.064 1.5293 0.064 0.61524 0.2754 1.1016 0.1933 0.45703 0.5449 0.69726 0.3574 0.24024 0.9434 0.24024 0.5507 0 0.914-0.22852t0.5625-0.69141z"/>
    <path d="m1295.9 756.8q0 2.3496-0.7383 3.4512-0.7324 1.0957-2.2793 1.0957-1.5703 0-2.2969-1.1133-0.7207-1.1133-0.7207-3.4219 0-2.3262 0.7324-3.4336 0.7324-1.1133 2.2852-1.1133 1.5703 0 2.291 1.1309 0.7266 1.125 0.7266 3.4043zm-1.5411 2.6602q0.2051-0.47461 0.2754-1.1133 0.076-0.64453 0.076-1.5469 0-0.89063-0.076-1.5469-0.07-0.65625-0.2812-1.1133-0.2051-0.45117-0.5625-0.67969-0.3516-0.22851-0.9082-0.22851-0.5508 0-0.9141 0.22851-0.3574 0.22852-0.5683 0.69141-0.1993 0.43359-0.2754 1.1309-0.07 0.69727-0.07 1.5293 0 0.91406 0.064 1.5293 0.064 0.61524 0.2754 1.1016 0.1934 0.45703 0.5449 0.69726 0.3574 0.24024 0.9434 0.24024 0.5508 0 0.914-0.22852 0.3633-0.22852 0.5625-0.69141z"/>
   </g>
   <g aria-label="22:00">
    <path d="m1347.5 761.16h-5.9063v-1.2246q0.6152-0.52734 1.2305-1.0547 0.6211-0.52735 1.1543-1.0488 1.125-1.0898 1.541-1.7285 0.416-0.64453 0.416-1.3887 0-0.67969-0.4512-1.0606-0.4453-0.38672-1.248-0.38672-0.5332 0-1.1543 0.1875t-1.2129 0.57422h-0.059v-1.2305q0.416-0.20507 1.1074-0.375 0.6973-0.16992 1.3477-0.16992 1.3418 0 2.1035 0.65039 0.7617 0.64453 0.7617 1.752 0 0.49804-0.1289 0.93164-0.123 0.42773-0.3691 0.81445-0.2285 0.36328-0.5391 0.71484-0.3047 0.35157-0.7441 0.7793-0.627 0.61523-1.295 1.1953-0.6679 0.57422-1.248 1.0664h4.6934z"/>
    <path d="m1355.2 761.16h-5.9063v-1.2246q0.6153-0.52734 1.2305-1.0547 0.6211-0.52735 1.1543-1.0488 1.125-1.0898 1.541-1.7285 0.416-0.64453 0.416-1.3887 0-0.67969-0.4511-1.0606-0.4454-0.38672-1.2481-0.38672-0.5332 0-1.1543 0.1875t-1.2129 0.57422h-0.059v-1.2305q0.416-0.20507 1.1075-0.375 0.6972-0.16992 1.3476-0.16992 1.3418 0 2.1035 0.65039 0.7617 0.64453 0.7617 1.752 0 0.49804-0.1289 0.93164-0.123 0.42773-0.3691 0.81445-0.2285 0.36328-0.5391 0.71484-0.3047 0.35157-0.7441 0.7793-0.627 0.61523-1.2949 1.1953-0.668 0.57422-1.2481 1.0664h4.6934z"/>
    <path d="m1359.4 756.29h-1.4004v-1.6699h1.4004zm0 4.875h-1.4004v-1.6699h1.4004z"/>
    <path d="m1368.3 756.8q0 2.3496-0.7383 3.4512-0.7324 1.0957-2.2792 1.0957-1.5704 0-2.2969-1.1133-0.7207-1.1133-0.7207-3.4219 0-2.3262 0.7324-3.4336 0.7324-1.1133 2.2852-1.1133 1.5703 0 2.291 1.1309 0.7265 1.125 0.7265 3.4043zm-1.541 2.6602q0.2051-0.47461 0.2754-1.1133 0.076-0.64453 0.076-1.5469 0-0.89063-0.076-1.5469-0.07-0.65625-0.2812-1.1133-0.2051-0.45117-0.5625-0.67969-0.3516-0.22851-0.9082-0.22851-0.5508 0-0.9141 0.22851-0.3574 0.22852-0.5684 0.69141-0.1992 0.43359-0.2754 1.1309-0.07 0.69727-0.07 1.5293 0 0.91406 0.064 1.5293 0.064 0.61524 0.2754 1.1016 0.1933 0.45703 0.5449 0.69726 0.3574 0.24024 0.9434 0.24024 0.5507 0 0.914-0.22852t0.5625-0.69141z"/>
    <path d="m1375.9 756.8q0 2.3496-0.7383 3.4512-0.7324 1.0957-2.2793 1.0957-1.5703 0-2.2969-1.1133-0.7207-1.1133-0.7207-3.4219 0-2.3262 0.7324-3.4336 0.7324-1.1133 2.2852-1.1133 1.5703 0 2.291 1.1309 0.7266 1.125 0.7266 3.4043zm-1.5411 2.6602q0.2051-0.47461 0.2754-1.1133 0.076-0.64453 0.076-1.5469 0-0.89063-0.076-1.5469-0.07-0.65625-0.2812-1.1133-0.2051-0.45117-0.5625-0.67969-0.3516-0.22851-0.9082-0.22851-0.5508 0-0.9141 0.22851-0.3574 0.22852-0.5683 0.69141-0.1993 0.43359-0.2754 1.1309-0.07 0.69727-0.07 1.5293 0 0.91406 0.064 1.5293 0.064 0.61524 0.2754 1.1016 0.1934 0.45703 0.5449 0.69726 0.3574 0.24024 0.9434 0.24024 0.5508 0 0.914-0.22852 0.3633-0.22852 0.5625-0.69141z"/>
   </g>
   <g aria-label="5:00">
    <path d="m1351.3 858.39q0 0.60937-0.2227 1.166t-0.6094 0.9375q-0.4218 0.41016-1.0078 0.63282-0.5801 0.21679-1.3476 0.21679-0.7149 0-1.377-0.15234-0.6621-0.14649-1.1191-0.35742v-1.2363h0.082q0.4805 0.30469 1.125 0.52148 0.6445 0.21094 1.2656 0.21094 0.416 0 0.8028-0.11719 0.3925-0.11718 0.6972-0.41015 0.2578-0.25196 0.3867-0.60352 0.1348-0.35156 0.1348-0.81445 0-0.45117-0.1582-0.76172-0.1523-0.31055-0.4277-0.49805-0.3047-0.22265-0.7442-0.31054-0.4336-0.0937-0.9726-0.0937-0.5157 0-0.9961 0.0703-0.4746 0.0703-0.8203 0.14062v-4.4941h5.25v1.0254h-4.1192v2.3203q0.252-0.0234 0.5157-0.0352 0.2636-0.0117 0.457-0.0117 0.709 0 1.2422 0.12305 0.5332 0.11719 0.9785 0.42187 0.4687 0.32227 0.7265 0.83203 0.2579 0.50977 0.2579 1.2774z"/>
    <path d="m1355.6 856.29h-1.4004v-1.6699h1.4004zm0 4.875h-1.4004v-1.6699h1.4004z"/>
    <path d="m1364.4 856.8q0 2.3496-0.7383 3.4512-0.7324 1.0957-2.2793 1.0957-1.5703 0-2.2968-1.1133-0.7207-1.1133-0.7207-3.4219 0-2.3262 0.7324-3.4336 0.7324-1.1133 2.2851-1.1133 1.5704 0 2.2911 1.1309 0.7265 1.125 0.7265 3.4043zm-1.541 2.6602q0.2051-0.47461 0.2754-1.1133 0.076-0.64453 0.076-1.5469 0-0.89063-0.076-1.5469-0.07-0.65625-0.2813-1.1133-0.205-0.45117-0.5625-0.67969-0.3515-0.22851-0.9082-0.22851-0.5507 0-0.914 0.22851-0.3574 0.22852-0.5684 0.69141-0.1992 0.43359-0.2754 1.1309-0.07 0.69727-0.07 1.5293 0 0.91406 0.064 1.5293 0.064 0.61524 0.2754 1.1016 0.1933 0.45703 0.5449 0.69726 0.3574 0.24024 0.9433 0.24024 0.5508 0 0.9141-0.22852t0.5625-0.69141z"/>
    <path d="m1372.1 856.8q0 2.3496-0.7382 3.4512-0.7325 1.0957-2.2793 1.0957-1.5703 0-2.2969-1.1133-0.7207-1.1133-0.7207-3.4219 0-2.3262 0.7324-3.4336 0.7324-1.1133 2.2852-1.1133 1.5703 0 2.291 1.1309 0.7265 1.125 0.7265 3.4043zm-1.541 2.6602q0.2051-0.47461 0.2754-1.1133 0.076-0.64453 0.076-1.5469 0-0.89063-0.076-1.5469-0.07-0.65625-0.2812-1.1133-0.2051-0.45117-0.5625-0.67969-0.3516-0.22851-0.9082-0.22851-0.5508 0-0.9141 0.22851-0.3574 0.22852-0.5684 0.69141-0.1992 0.43359-0.2753 1.1309-0.07 0.69727-0.07 1.5293 0 0.91406 0.065 1.5293 0.064 0.61524 0.2754 1.1016 0.1933 0.45703 0.5449 0.69726 0.3574 0.24024 0.9434 0.24024 0.5507 0 0.914-0.22852t0.5625-0.69141z"/>
   </g>
   <g aria-label="22:00">
    <path d="m1007.5 861.16h-5.9063v-1.2246q0.6152-0.52734 1.2305-1.0547 0.6211-0.52735 1.1543-1.0488 1.125-1.0898 1.541-1.7285 0.416-0.64453 0.416-1.3887 0-0.67969-0.4512-1.0606-0.4453-0.38672-1.248-0.38672-0.5332 0-1.1543 0.1875t-1.2129 0.57422h-0.059v-1.2305q0.416-0.20507 1.1074-0.375 0.6973-0.16992 1.3477-0.16992 1.3418 0 2.1035 0.65039 0.7617 0.64453 0.7617 1.752 0 0.49804-0.1289 0.93164-0.123 0.42773-0.3691 0.81445-0.2285 0.36328-0.5391 0.71484-0.3047 0.35157-0.7441 0.7793-0.627 0.61523-1.295 1.1953-0.6679 0.57422-1.248 1.0664h4.6934z"/>
    <path d="m1015.2 861.16h-5.9063v-1.2246q0.6153-0.52734 1.2305-1.0547 0.6211-0.52735 1.1543-1.0488 1.125-1.0898 1.541-1.7285 0.416-0.64453 0.416-1.3887 0-0.67969-0.4511-1.0606-0.4454-0.38672-1.2481-0.38672-0.5332 0-1.1543 0.1875t-1.2129 0.57422h-0.059v-1.2305q0.416-0.20507 1.1075-0.375 0.6972-0.16992 1.3476-0.16992 1.3418 0 2.1035 0.65039 0.7617 0.64453 0.7617 1.752 0 0.49804-0.1289 0.93164-0.123 0.42773-0.3691 0.81445-0.2285 0.36328-0.5391 0.71484-0.3047 0.35157-0.7441 0.7793-0.627 0.61523-1.2949 1.1953-0.668 0.57422-1.2481 1.0664h4.6934z"/>
    <path d="m1019.4 856.29h-1.4004v-1.6699h1.4004zm0 4.875h-1.4004v-1.6699h1.4004z"/>
    <path d="m1028.3 856.8q0 2.3496-0.7383 3.4512-0.7324 1.0957-2.2792 1.0957-1.5704 0-2.2969-1.1133-0.7207-1.1133-0.7207-3.4219 0-2.3262 0.7324-3.4336 0.7324-1.1133 2.2852-1.1133 1.5703 0 2.291 1.1309 0.7265 1.125 0.7265 3.4043zm-1.541 2.6602q0.2051-0.47461 0.2754-1.1133 0.076-0.64453 0.076-1.5469 0-0.89063-0.076-1.5469-0.07-0.65625-0.2812-1.1133-0.2051-0.45117-0.5625-0.67969-0.3516-0.22851-0.9082-0.22851-0.5508 0-0.9141 0.22851-0.3574 0.22852-0.5684 0.69141-0.1992 0.43359-0.2754 1.1309-0.07 0.69727-0.07 1.5293 0 0.91406 0.065 1.5293 0.064 0.61524 0.2754 1.1016 0.1933 0.45703 0.5449 0.69726 0.3574 0.24024 0.9434 0.24024 0.5507 0 0.914-0.22852t0.5625-0.69141z"/>
    <path d="m1035.9 856.8q0 2.3496-0.7383 3.4512-0.7324 1.0957-2.2793 1.0957-1.5703 0-2.2969-1.1133-0.7207-1.1133-0.7207-3.4219 0-2.3262 0.7324-3.4336 0.7324-1.1133 2.2852-1.1133 1.5703 0 2.291 1.1309 0.7266 1.125 0.7266 3.4043zm-1.5411 2.6602q0.2051-0.47461 0.2754-1.1133 0.076-0.64453 0.076-1.5469 0-0.89063-0.076-1.5469-0.07-0.65625-0.2812-1.1133-0.2051-0.45117-0.5625-0.67969-0.3516-0.22851-0.9082-0.22851-0.5508 0-0.9141 0.22851-0.3574 0.22852-0.5683 0.69141-0.1993 0.43359-0.2754 1.1309-0.07 0.69727-0.07 1.5293 0 0.91406 0.064 1.5293 0.064 0.61524 0.2754 1.1016 0.1934 0.45703 0.5449 0.69726 0.3574 0.24024 0.9434 0.24024 0.5508 0 0.914-0.22852 0.3633-0.22852 0.5625-0.69141z"/>
   </g>
   <g aria-label="5:00">
    <path d="m1011.3 958.39q0 0.60937-0.2227 1.166t-0.6094 0.9375q-0.4218 0.41016-1.0078 0.63282-0.5801 0.21679-1.3476 0.21679-0.7149 0-1.377-0.15234-0.6621-0.14649-1.1191-0.35742v-1.2363h0.082q0.4805 0.30469 1.125 0.52148 0.6445 0.21094 1.2656 0.21094 0.416 0 0.8028-0.11719 0.3925-0.11718 0.6972-0.41015 0.2578-0.25196 0.3867-0.60352 0.1348-0.35156 0.1348-0.81445 0-0.45117-0.1582-0.76172-0.1523-0.31055-0.4277-0.49805-0.3047-0.22265-0.7442-0.31054-0.4336-0.0937-0.9726-0.0937-0.5157 0-0.9961 0.0703-0.4746 0.0703-0.8203 0.14062v-4.4941h5.25v1.0254h-4.1192v2.3203q0.252-0.0234 0.5157-0.0352 0.2636-0.0117 0.457-0.0117 0.709 0 1.2422 0.12305 0.5332 0.11719 0.9785 0.42187 0.4687 0.32227 0.7265 0.83203 0.2579 0.50977 0.2579 1.2774z"/>
    <path d="m1015.6 956.29h-1.4004v-1.6699h1.4004zm0 4.875h-1.4004v-1.6699h1.4004z"/>
    <path d="m1024.4 956.8q0 2.3496-0.7383 3.4512-0.7324 1.0957-2.2793 1.0957-1.5703 0-2.2968-1.1133-0.7207-1.1133-0.7207-3.4219 0-2.3262 0.7324-3.4336 0.7324-1.1133 2.2851-1.1133 1.5704 0 2.2911 1.1309 0.7265 1.125 0.7265 3.4043zm-1.541 2.6602q0.2051-0.47461 0.2754-1.1133 0.076-0.64453 0.076-1.5469 0-0.89063-0.076-1.5469-0.07-0.65625-0.2813-1.1133-0.205-0.45117-0.5625-0.67969-0.3515-0.22851-0.9082-0.22851-0.5507 0-0.914 0.22851-0.3574 0.22852-0.5684 0.69141-0.1992 0.43359-0.2754 1.1309-0.07 0.69727-0.07 1.5293 0 0.91406 0.065 1.5293 0.064 0.61524 0.2754 1.1016 0.1933 0.45703 0.5449 0.69726 0.3574 0.24024 0.9433 0.24024 0.5508 0 0.9141-0.22852t0.5625-0.69141z"/>
    <path d="m1032.1 956.8q0 2.3496-0.7382 3.4512-0.7325 1.0957-2.2793 1.0957-1.5703 0-2.2969-1.1133-0.7207-1.1133-0.7207-3.4219 0-2.3262 0.7324-3.4336 0.7324-1.1133 2.2852-1.1133 1.5703 0 2.291 1.1309 0.7265 1.125 0.7265 3.4043zm-1.541 2.6602q0.2051-0.47461 0.2754-1.1133 0.076-0.64453 0.076-1.5469 0-0.89063-0.076-1.5469-0.07-0.65625-0.2812-1.1133-0.2051-0.45117-0.5625-0.67969-0.3516-0.22851-0.9082-0.22851-0.5508 0-0.9141 0.22851-0.3574 0.22852-0.5684 0.69141-0.1992 0.43359-0.2753 1.1309-0.07 0.69727-0.07 1.5293 0 0.91406 0.065 1.5293 0.064 0.61524 0.2754 1.1016 0.1933 0.45703 0.5449 0.69726 0.3574 0.24024 0.9434 0.24024 0.5507 0 0.914-0.22852t0.5625-0.69141z"/>
   </g>
  </g>
  <circle transform="scale(-1,1)" cx="-997.37" cy="852.33" r="2.333" fill="#2524bb"/>
  <circle transform="scale(-1,1)" cx="-986.16" cy="865.2" r="2.333" fill="#2524bb"/>
  <g fill="#146a27">
   <circle transform="scale(-1,1)" cx="-980.37" cy="879.72" r="2.333"/>
   <circle transform="scale(-1,1)" cx="-979.11" cy="897.25" r="2.333"/>
   <circle transform="scale(-1,1)" cx="-996.03" cy="933.25" r="2.333"/>
   <circle transform="scale(-1,1)" cx="-983.37" cy="916.07" r="2.333"/>
  </g>
  <g fill="#2524bb">
   <circle cx="1038.8" cy="843.2" r="2.333"/>
   <circle cx="1078.8" cy="843.2" r="2.333"/>
   <circle cx="1098.8" cy="843.2" r="2.333"/>
   <circle cx="1118.8" cy="843.2" r="2.333"/>
   <circle cx="1158.8" cy="843.2" r="2.333"/>
   <circle cx="1178.8" cy="843.2" r="2.333"/>
   <circle cx="1198.8" cy="843.2" r="2.333"/>
   <circle cx="1218.8" cy="843.2" r="2.333"/>
   <circle cx="1238.8" cy="843.2" r="2.333"/>
   <circle cx="1258.8" cy="843.2" r="2.333"/>
   <circle cx="1278.8" cy="843.2" r="2.333"/>
   <circle cx="1298.8" cy="843.2" r="2.333"/>
   <circle cx="1318.8" cy="843.2" r="2.333"/>
   <circle cx="1338.8" cy="843.2" r="2.333"/>
  </g>
  <g>
   <circle cx="1038.8" cy="943.2" r="2.333" fill="#146a27"/>
   <circle cx="1278.8" cy="743.2" r="5.085" fill="#bb2446"/>
   <circle cx="1238.8" cy="743.2" r="5.085" fill="#bb2446"/>
   <g fill="#393939" stroke-linecap="round" aria-label="16:00">
    <path d="m1127 861.16h-4.7226v-0.89062h1.8164v-5.8477h-1.8164v-0.79687q0.3691 0 0.791-0.0586 0.4218-0.0645 0.6386-0.18164 0.2696-0.14648 0.4219-0.36914 0.1582-0.22851 0.1817-0.60937h0.9082v7.8633h1.7812z"/>
    <path d="m1135.3 858.33q0 1.3301-0.8789 2.1738-0.8731 0.83789-2.1445 0.83789-0.6446 0-1.1719-0.19922-0.5274-0.19921-0.9317-0.59179-0.5039-0.48633-0.7793-1.2891-0.2695-0.80273-0.2695-1.9336 0-1.1602 0.2461-2.0566 0.252-0.89648 0.7969-1.5938 0.5156-0.66211 1.3301-1.0312 0.8144-0.375 1.8984-0.375 0.3457 0 0.5801 0.0293 0.2343 0.0293 0.4746 0.10547v1.1191h-0.059q-0.1641-0.0879-0.4981-0.16407-0.3281-0.082-0.6738-0.082-1.2598 0-2.0098 0.79102-0.75 0.78515-0.873 2.127 0.4922-0.29883 0.9668-0.45117 0.4805-0.1582 1.1074-0.1582 0.5567 0 0.9785 0.10547 0.4278 0.0996 0.8731 0.41015 0.5156 0.35742 0.7734 0.90235 0.2637 0.54492 0.2637 1.3242zm-1.1895 0.0469q0-0.54492-0.164-0.90234-0.1582-0.35743-0.5274-0.6211-0.2695-0.1875-0.5976-0.24609-0.3281-0.0586-0.6856-0.0586-0.498 0-0.9258 0.11719-0.4277 0.11719-0.8789 0.36328-0.012 0.12891-0.017 0.25196-0.01 0.11718-0.01 0.29882 0 0.92579 0.1875 1.4648 0.1934 0.5332 0.5273 0.84375 0.2696 0.25781 0.5801 0.38086 0.3164 0.11718 0.6856 0.11718 0.8496 0 1.3359-0.51562 0.4863-0.52148 0.4863-1.4941z"/>
    <path d="m1139.4 856.29h-1.4004v-1.6699h1.4004zm0 4.875h-1.4004v-1.6699h1.4004z"/>
    <path d="m1148.3 856.8q0 2.3496-0.7383 3.4512-0.7324 1.0957-2.2792 1.0957-1.5704 0-2.2969-1.1133-0.7207-1.1133-0.7207-3.4219 0-2.3262 0.7324-3.4336 0.7324-1.1133 2.2852-1.1133 1.5703 0 2.291 1.1309 0.7265 1.125 0.7265 3.4043zm-1.541 2.6602q0.2051-0.47461 0.2754-1.1133 0.076-0.64453 0.076-1.5469 0-0.89063-0.076-1.5469-0.07-0.65625-0.2812-1.1133-0.2051-0.45117-0.5625-0.67969-0.3516-0.22851-0.9082-0.22851-0.5508 0-0.9141 0.22851-0.3574 0.22852-0.5684 0.69141-0.1992 0.43359-0.2754 1.1309-0.07 0.69727-0.07 1.5293 0 0.91406 0.064 1.5293 0.064 0.61524 0.2754 1.1016 0.1933 0.45703 0.5449 0.69726 0.3574 0.24024 0.9434 0.24024 0.5507 0 0.914-0.22852t0.5625-0.69141z"/>
    <path d="m1155.9 856.8q0 2.3496-0.7383 3.4512-0.7324 1.0957-2.2793 1.0957-1.5703 0-2.2969-1.1133-0.7207-1.1133-0.7207-3.4219 0-2.3262 0.7324-3.4336 0.7324-1.1133 2.2852-1.1133 1.5703 0 2.291 1.1309 0.7266 1.125 0.7266 3.4043zm-1.5411 2.6602q0.2051-0.47461 0.2754-1.1133 0.076-0.64453 0.076-1.5469 0-0.89063-0.076-1.5469-0.07-0.65625-0.2812-1.1133-0.2051-0.45117-0.5625-0.67969-0.3516-0.22851-0.9082-0.22851-0.5508 0-0.9141 0.22851-0.3574 0.22852-0.5683 0.69141-0.1993 0.43359-0.2754 1.1309-0.07 0.69727-0.07 1.5293 0 0.91406 0.064 1.5293 0.064 0.61524 0.2754 1.1016 0.1934 0.45703 0.5449 0.69726 0.3574 0.24024 0.9434 0.24024 0.5508 0 0.914-0.22852 0.3633-0.22852 0.5625-0.69141z"/>
   </g>
   <g fill="#393939" stroke-linecap="round" aria-label="20:00">
    <path d="m1047.5 861.16h-5.9063v-1.2246q0.6152-0.52734 1.2305-1.0547 0.6211-0.52735 1.1543-1.0488 1.125-1.0898 1.541-1.7285 0.416-0.64453 0.416-1.3887 0-0.67969-0.4512-1.0606-0.4453-0.38672-1.248-0.38672-0.5332 0-1.1543 0.1875t-1.2129 0.57422h-0.059v-1.2305q0.416-0.20507 1.1074-0.375 0.6973-0.16992 1.3477-0.16992 1.3418 0 2.1035 0.65039 0.7617 0.64453 0.7617 1.752 0 0.49804-0.1289 0.93164-0.123 0.42773-0.3691 0.81445-0.2285 0.36328-0.5391 0.71484-0.3047 0.35157-0.7441 0.7793-0.627 0.61523-1.295 1.1953-0.6679 0.57422-1.248 1.0664h4.6934z"/>
    <path d="m1055.2 856.8q0 2.3496-0.7383 3.4512-0.7324 1.0957-2.2793 1.0957-1.5703 0-2.2969-1.1133-0.7207-1.1133-0.7207-3.4219 0-2.3262 0.7324-3.4336 0.7325-1.1133 2.2852-1.1133 1.5703 0 2.291 1.1309 0.7266 1.125 0.7266 3.4043zm-1.541 2.6602q0.205-0.47461 0.2753-1.1133 0.076-0.64453 0.076-1.5469 0-0.89063-0.076-1.5469-0.07-0.65625-0.2812-1.1133-0.2051-0.45117-0.5625-0.67969-0.3516-0.22851-0.9082-0.22851-0.5508 0-0.9141 0.22851-0.3574 0.22852-0.5683 0.69141-0.1993 0.43359-0.2754 1.1309-0.07 0.69727-0.07 1.5293 0 0.91406 0.064 1.5293 0.064 0.61524 0.2754 1.1016 0.1934 0.45703 0.5449 0.69726 0.3575 0.24024 0.9434 0.24024 0.5508 0 0.9141-0.22852 0.3632-0.22852 0.5625-0.69141z"/>
    <path d="m1059.4 856.29h-1.4004v-1.6699h1.4004zm0 4.875h-1.4004v-1.6699h1.4004z"/>
    <path d="m1068.3 856.8q0 2.3496-0.7383 3.4512-0.7324 1.0957-2.2792 1.0957-1.5704 0-2.2969-1.1133-0.7207-1.1133-0.7207-3.4219 0-2.3262 0.7324-3.4336 0.7324-1.1133 2.2852-1.1133 1.5703 0 2.291 1.1309 0.7265 1.125 0.7265 3.4043zm-1.541 2.6602q0.2051-0.47461 0.2754-1.1133 0.076-0.64453 0.076-1.5469 0-0.89063-0.076-1.5469-0.07-0.65625-0.2812-1.1133-0.2051-0.45117-0.5625-0.67969-0.3516-0.22851-0.9082-0.22851-0.5508 0-0.9141 0.22851-0.3574 0.22852-0.5684 0.69141-0.1992 0.43359-0.2754 1.1309-0.07 0.69727-0.07 1.5293 0 0.91406 0.064 1.5293 0.064 0.61524 0.2754 1.1016 0.1933 0.45703 0.5449 0.69726 0.3574 0.24024 0.9434 0.24024 0.5507 0 0.914-0.22852t0.5625-0.69141z"/>
    <path d="m1075.9 856.8q0 2.3496-0.7383 3.4512-0.7324 1.0957-2.2793 1.0957-1.5703 0-2.2969-1.1133-0.7207-1.1133-0.7207-3.4219 0-2.3262 0.7324-3.4336 0.7324-1.1133 2.2852-1.1133 1.5703 0 2.291 1.1309 0.7266 1.125 0.7266 3.4043zm-1.5411 2.6602q0.2051-0.47461 0.2754-1.1133 0.076-0.64453 0.076-1.5469 0-0.89063-0.076-1.5469-0.07-0.65625-0.2812-1.1133-0.2051-0.45117-0.5625-0.67969-0.3516-0.22851-0.9082-0.22851-0.5508 0-0.9141 0.22851-0.3574 0.22852-0.5683 0.69141-0.1993 0.43359-0.2754 1.1309-0.07 0.69727-0.07 1.5293 0 0.91406 0.064 1.5293 0.064 0.61524 0.2754 1.1016 0.1934 0.45703 0.5449 0.69726 0.3574 0.24024 0.9434 0.24024 0.5508 0 0.914-0.22852 0.3633-0.22852 0.5625-0.69141z"/>
   </g>
  </g>
  <g fill="#146a27">
   <circle cx="1058.8" cy="943.2" r="2.333"/>
   <circle cx="1078.8" cy="943.2" r="2.333"/>
   <circle cx="1098.8" cy="943.2" r="2.333"/>
   <circle cx="1118.8" cy="943.2" r="2.333"/>
   <circle cx="1138.8" cy="943.2" r="2.333"/>
   <circle cx="1158.8" cy="943.2" r="2.333"/>
   <circle cx="1178.8" cy="943.2" r="2.333"/>
   <circle cx="1198.8" cy="943.2" r="2.333"/>
   <circle cx="1218.8" cy="943.2" r="2.333"/>
   <circle cx="1258.8" cy="943.2" r="2.333"/>
  </g>
  <g>
   <g fill="#393939" stroke-linecap="round" aria-label="16:00">
    <path d="m1227 961.16h-4.7226v-0.89062h1.8164v-5.8477h-1.8164v-0.79687q0.3691 0 0.791-0.0586 0.4218-0.0645 0.6386-0.18164 0.2696-0.14648 0.4219-0.36914 0.1582-0.22851 0.1817-0.60937h0.9082v7.8633h1.7812z"/>
    <path d="m1235.3 958.33q0 1.3301-0.8789 2.1738-0.8731 0.83789-2.1445 0.83789-0.6446 0-1.1719-0.19922-0.5274-0.19921-0.9317-0.59179-0.5039-0.48633-0.7793-1.2891-0.2695-0.80273-0.2695-1.9336 0-1.1602 0.2461-2.0566 0.252-0.89648 0.7969-1.5938 0.5156-0.66211 1.3301-1.0312 0.8144-0.375 1.8984-0.375 0.3457 0 0.5801 0.0293 0.2343 0.0293 0.4746 0.10547v1.1191h-0.059q-0.1641-0.0879-0.4981-0.16407-0.3281-0.082-0.6738-0.082-1.2598 0-2.0098 0.79102-0.75 0.78515-0.873 2.127 0.4922-0.29883 0.9668-0.45117 0.4805-0.1582 1.1074-0.1582 0.5567 0 0.9785 0.10547 0.4278 0.0996 0.8731 0.41015 0.5156 0.35742 0.7734 0.90235 0.2637 0.54492 0.2637 1.3242zm-1.1895 0.0469q0-0.54492-0.164-0.90234-0.1582-0.35743-0.5274-0.6211-0.2695-0.1875-0.5976-0.24609-0.3281-0.0586-0.6856-0.0586-0.498 0-0.9258 0.11719-0.4277 0.11719-0.8789 0.36328-0.012 0.12891-0.017 0.25196-0.01 0.11718-0.01 0.29882 0 0.92579 0.1875 1.4648 0.1934 0.5332 0.5273 0.84375 0.2696 0.25781 0.5801 0.38086 0.3164 0.11718 0.6856 0.11718 0.8496 0 1.3359-0.51562 0.4863-0.52148 0.4863-1.4941z"/>
    <path d="m1239.4 956.29h-1.4004v-1.6699h1.4004zm0 4.875h-1.4004v-1.6699h1.4004z"/>
    <path d="m1248.3 956.8q0 2.3496-0.7383 3.4512-0.7324 1.0957-2.2792 1.0957-1.5704 0-2.2969-1.1133-0.7207-1.1133-0.7207-3.4219 0-2.3262 0.7324-3.4336 0.7324-1.1133 2.2852-1.1133 1.5703 0 2.291 1.1309 0.7265 1.125 0.7265 3.4043zm-1.541 2.6602q0.2051-0.47461 0.2754-1.1133 0.076-0.64453 0.076-1.5469 0-0.89063-0.076-1.5469-0.07-0.65625-0.2812-1.1133-0.2051-0.45117-0.5625-0.67969-0.3516-0.22851-0.9082-0.22851-0.5508 0-0.9141 0.22851-0.3574 0.22852-0.5684 0.69141-0.1992 0.43359-0.2754 1.1309-0.07 0.69727-0.07 1.5293 0 0.91406 0.064 1.5293 0.064 0.61524 0.2754 1.1016 0.1933 0.45703 0.5449 0.69726 0.3574 0.24024 0.9434 0.24024 0.5507 0 0.914-0.22852t0.5625-0.69141z"/>
    <path d="m1255.9 956.8q0 2.3496-0.7383 3.4512-0.7324 1.0957-2.2793 1.0957-1.5703 0-2.2969-1.1133-0.7207-1.1133-0.7207-3.4219 0-2.3262 0.7324-3.4336 0.7324-1.1133 2.2852-1.1133 1.5703 0 2.291 1.1309 0.7266 1.125 0.7266 3.4043zm-1.5411 2.6602q0.2051-0.47461 0.2754-1.1133 0.076-0.64453 0.076-1.5469 0-0.89063-0.076-1.5469-0.07-0.65625-0.2812-1.1133-0.2051-0.45117-0.5625-0.67969-0.3516-0.22851-0.9082-0.22851-0.5508 0-0.9141 0.22851-0.3574 0.22852-0.5683 0.69141-0.1993 0.43359-0.2754 1.1309-0.07 0.69727-0.07 1.5293 0 0.91406 0.064 1.5293 0.064 0.61524 0.2754 1.1016 0.1934 0.45703 0.5449 0.69726 0.3574 0.24024 0.9434 0.24024 0.5508 0 0.914-0.22852 0.3633-0.22852 0.5625-0.69141z"/>
   </g>
   <g fill="#393939" stroke-linecap="round" aria-label="18:00">
    <path d="m1267 961.16h-4.7226v-0.89062h1.8164v-5.8477h-1.8164v-0.79687q0.3691 0 0.791-0.0586 0.4218-0.0645 0.6386-0.18164 0.2696-0.14648 0.4219-0.36914 0.1582-0.22851 0.1817-0.60937h0.9082v7.8633h1.7812z"/>
    <path d="m1275.2 958.73q0 1.1309-0.8847 1.8809-0.8789 0.75-2.2149 0.75-1.4179 0-2.2617-0.73242-0.8379-0.73242-0.8379-1.875 0-0.72656 0.4219-1.3125 0.4219-0.5918 1.1894-0.9375v-0.0352q-0.7031-0.375-1.0429-0.82031-0.334-0.44531-0.334-1.1133 0-0.98438 0.8086-1.6406t2.0566-0.65625q1.3067 0 2.086 0.62696 0.7793 0.62695 0.7793 1.5938 0 0.59179-0.3692 1.166-0.3691 0.56836-1.084 0.89063v0.0351q0.8204 0.35157 1.2539 0.86719 0.4336 0.51563 0.4336 1.3125zm-1.3886-4.2598q0-0.62696-0.4864-0.9961-0.4804-0.375-1.2304-0.375-0.7383 0-1.2129 0.35156-0.4688 0.35157-0.4688 0.94922 0 0.42188 0.2344 0.73243 0.2402 0.30468 0.7207 0.54492 0.2168 0.10547 0.6211 0.27539 0.4102 0.16992 0.7969 0.28125 0.5801-0.38672 0.8027-0.80274 0.2227-0.41601 0.2227-0.96093zm0.1816 4.3711q0-0.53906-0.2402-0.86133-0.2344-0.32812-0.9258-0.65625-0.2754-0.1289-0.6035-0.24023t-0.8731-0.31055q-0.5273 0.28711-0.8496 0.7793-0.3164 0.49218-0.3164 1.1133 0 0.79101 0.5449 1.3066 0.545 0.51562 1.3828 0.51562 0.8555 0 1.3653-0.43945 0.5156-0.43945 0.5156-1.207z"/>
    <path d="m1279.4 956.29h-1.4004v-1.6699h1.4004zm0 4.875h-1.4004v-1.6699h1.4004z"/>
    <path d="m1288.3 956.8q0 2.3496-0.7383 3.4512-0.7324 1.0957-2.2792 1.0957-1.5704 0-2.2969-1.1133-0.7207-1.1133-0.7207-3.4219 0-2.3262 0.7324-3.4336 0.7324-1.1133 2.2852-1.1133 1.5703 0 2.291 1.1309 0.7265 1.125 0.7265 3.4043zm-1.541 2.6602q0.2051-0.47461 0.2754-1.1133 0.076-0.64453 0.076-1.5469 0-0.89063-0.076-1.5469-0.07-0.65625-0.2812-1.1133-0.2051-0.45117-0.5625-0.67969-0.3516-0.22851-0.9082-0.22851-0.5508 0-0.9141 0.22851-0.3574 0.22852-0.5684 0.69141-0.1992 0.43359-0.2754 1.1309-0.07 0.69727-0.07 1.5293 0 0.91406 0.064 1.5293 0.064 0.61524 0.2754 1.1016 0.1933 0.45703 0.5449 0.69726 0.3574 0.24024 0.9434 0.24024 0.5507 0 0.914-0.22852t0.5625-0.69141z"/>
    <path d="m1295.9 956.8q0 2.3496-0.7383 3.4512-0.7324 1.0957-2.2793 1.0957-1.5703 0-2.2969-1.1133-0.7207-1.1133-0.7207-3.4219 0-2.3262 0.7324-3.4336 0.7324-1.1133 2.2852-1.1133 1.5703 0 2.291 1.1309 0.7266 1.125 0.7266 3.4043zm-1.5411 2.6602q0.2051-0.47461 0.2754-1.1133 0.076-0.64453 0.076-1.5469 0-0.89063-0.076-1.5469-0.07-0.65625-0.2812-1.1133-0.2051-0.45117-0.5625-0.67969-0.3516-0.22851-0.9082-0.22851-0.5508 0-0.9141 0.22851-0.3574 0.22852-0.5683 0.69141-0.1993 0.43359-0.2754 1.1309-0.07 0.69727-0.07 1.5293 0 0.91406 0.064 1.5293 0.064 0.61524 0.2754 1.1016 0.1934 0.45703 0.5449 0.69726 0.3574 0.24024 0.9434 0.24024 0.5508 0 0.914-0.22852 0.3633-0.22852 0.5625-0.69141z"/>
   </g>
   <circle cx="1138.8" cy="843.2" r="5.085" fill="#2524bb"/>
   <circle cx="1058.8" cy="843.2" r="5.085" fill="#2524bb"/>
   <circle cx="1238.8" cy="943.2" r="5.085" fill="#146a27"/>
   <circle cx="1278.8" cy="943.2" r="5.085" fill="#146a27"/>
   <path d="m1279.8 694.2 0.1853 28.575 5.625 5.04 77.19 0.18533v-28.76l-5.625-5.04z" fill="#383731"/>
   <path d="m1277.8 692.2v28.76l5.625 5.04h77.375v-28.76l-5.625-5.04z" fill="#fff29b"/>
   <g fill="#393939" stroke-linecap="round" aria-label="Začátek Soutěže">
    <path d="m1303.7 705.9h-6.8086v-1.0781l5.3496-6.6152h-5.1504v-1.0312h6.4804v1.0488l-5.4023 6.6445h5.5313z"/>
    <path d="m1310.3 705.9h-1.0957v-0.69727q-0.1465 0.0996-0.3984 0.28125-0.2461 0.17578-0.4805 0.28125-0.2754 0.13477-0.6328 0.22266-0.3574 0.0937-0.8379 0.0937-0.8848 0-1.5-0.58594t-0.6152-1.4941q0-0.74414 0.3164-1.2012 0.3222-0.46289 0.914-0.72656 0.5977-0.26367 1.4356-0.35742 0.8379-0.0937 1.7988-0.14063v-0.16992q0-0.375-0.1348-0.6211-0.1289-0.24609-0.375-0.38671-0.2343-0.13477-0.5625-0.18164-0.3281-0.0469-0.6855-0.0469-0.4336 0-0.9668 0.11719-0.5332 0.11133-1.1016 0.32812h-0.059v-1.1191q0.3223-0.0879 0.9317-0.19336 0.6094-0.10547 1.2012-0.10547 0.6914 0 1.2011 0.11719 0.5157 0.11133 0.8907 0.38672 0.3691 0.26953 0.5625 0.69727 0.1933 0.42773 0.1933 1.0605zm-1.0957-1.6113v-1.8223q-0.5039 0.0293-1.1894 0.0879-0.6797 0.0586-1.0782 0.16992-0.4746 0.13476-0.7675 0.42187-0.293 0.28125-0.293 0.7793 0 0.5625 0.3398 0.84961 0.3399 0.28125 1.0371 0.28125 0.5801 0 1.0606-0.22266 0.4805-0.22851 0.8906-0.54492z"/>
    <path d="m1317.2 705.49q-0.5508 0.26367-1.0489 0.41016-0.4921 0.14648-1.0488 0.14648-0.709 0-1.3008-0.20507-0.5918-0.21094-1.0136-0.63282-0.4278-0.42187-0.6621-1.0664-0.2344-0.64453-0.2344-1.5059 0-1.6055 0.8789-2.5195 0.8847-0.91407 2.332-0.91407 0.5625 0 1.1016 0.15821 0.5449 0.1582 0.9961 0.38672v1.2246h-0.059q-0.5039-0.39257-1.043-0.60351-0.5332-0.21094-1.043-0.21094-0.9375 0-1.4824 0.63281-0.539 0.62696-0.539 1.8457 0 1.1836 0.5273 1.8223 0.5332 0.63282 1.4941 0.63282 0.334 0 0.6797-0.0879t0.6211-0.22851q0.2403-0.12305 0.4512-0.25781 0.2109-0.14063 0.334-0.24024h0.059zm-0.1875-9.4102-1.336 2.2207h-1.33l-1.336-2.2207h0.9317l1.0839 1.5 1.0782-1.5z"/>
    <path d="m1323.7 705.9h-1.0957v-0.69727q-0.1465 0.0996-0.3985 0.28125-0.2461 0.17578-0.4804 0.28125-0.2754 0.13477-0.6328 0.22266-0.3575 0.0937-0.8379 0.0937-0.8848 0-1.5-0.58594-0.6153-0.58594-0.6153-1.4941 0-0.74414 0.3164-1.2012 0.3223-0.46289 0.9141-0.72656 0.5977-0.26367 1.4355-0.35742 0.8379-0.0937 1.7989-0.14063v-0.16992q0-0.375-0.1348-0.6211-0.1289-0.24609-0.375-0.38671-0.2344-0.13477-0.5625-0.18164-0.3281-0.0469-0.6855-0.0469-0.4336 0-0.9668 0.11719-0.5332 0.11133-1.1016 0.32812h-0.059v-1.1191q0.3223-0.0879 0.9316-0.19336 0.6094-0.10547 1.2012-0.10547 0.6914 0 1.2012 0.11719 0.5156 0.11133 0.8906 0.38672 0.3692 0.26953 0.5625 0.69727 0.1934 0.42773 0.1934 1.0605zm-1.0957-1.6113v-1.8223q-0.5039 0.0293-1.1895 0.0879-0.6797 0.0586-1.0781 0.16992-0.4746 0.13476-0.7676 0.42187-0.293 0.28125-0.293 0.7793 0 0.5625 0.3399 0.84961 0.3398 0.28125 1.0371 0.28125 0.5801 0 1.0605-0.22266 0.4805-0.22851 0.8907-0.54492zm0.3984-8.209-1.5996 2.1914h-0.873l1.0488-2.1914z"/>
    <path d="m1329.3 705.84q-0.3105 0.082-0.6797 0.13476-0.3632 0.0527-0.6504 0.0527-1.0019 0-1.5234-0.53907-0.5215-0.53906-0.5215-1.7285v-3.4805h-0.7441v-0.92578h0.7441v-1.8809h1.1016v1.8809h2.2734v0.92578h-2.2734v2.9824q0 0.51563 0.023 0.80859 0.024 0.28711 0.1641 0.53907 0.1289 0.23437 0.3516 0.3457 0.2285 0.10547 0.6914 0.10547 0.2695 0 0.5625-0.0762 0.2929-0.082 0.4218-0.13477h0.059z"/>
    <path d="m1336.1 702.74h-4.8223q0 0.60351 0.1817 1.0547 0.1816 0.44532 0.498 0.73243 0.3047 0.28125 0.7207 0.42187 0.4219 0.14063 0.9258 0.14063 0.668 0 1.3418-0.26368 0.6797-0.26953 0.9668-0.52734h0.059v1.2012q-0.5567 0.23438-1.1367 0.39258-0.5801 0.1582-1.2188 0.1582-1.6289 0-2.543-0.8789-0.914-0.88477-0.914-2.5078 0-1.6055 0.873-2.5488 0.8789-0.94336 2.3086-0.94336 1.3242 0 2.0391 0.77343 0.7207 0.77344 0.7207 2.1973zm-1.0723-0.84375q-0.01-0.86719-0.4394-1.3418-0.4278-0.47461-1.3067-0.47461-0.8847 0-1.4121 0.52148-0.5215 0.52149-0.5918 1.2949z"/>
    <path d="m1343.7 705.9h-1.4531l-2.625-2.8652-0.7149 0.67969v2.1856h-1.1015v-9.1172h1.1015v5.8477l3.1817-3.2754h1.3887l-3.0411 3.0234z"/>
    <path d="m1303.3 718.41q0 0.50977-0.2403 1.0078-0.2343 0.49804-0.6621 0.84375-0.4687 0.375-1.0957 0.58593-0.6211 0.21094-1.5 0.21094-0.9433 0-1.6992-0.17578-0.75-0.17578-1.5293-0.52148v-1.4531h0.082q0.6621 0.55078 1.5293 0.84961t1.6289 0.29883q1.0782 0 1.6758-0.4043 0.6035-0.40429 0.6035-1.0781 0-0.58008-0.2871-0.85547-0.2812-0.27539-0.8613-0.42774-0.4395-0.11718-0.9551-0.19336-0.5098-0.0762-1.084-0.19335-1.1601-0.2461-1.7226-0.8379-0.5567-0.59765-0.5567-1.5527 0-1.0957 0.9258-1.793 0.9258-0.70312 2.3496-0.70312 0.9199 0 1.6875 0.17578t1.3594 0.43359v1.3711h-0.082q-0.4981-0.42188-1.3125-0.69727-0.8086-0.28125-1.6582-0.28125-0.9317 0-1.5 0.38672-0.5625 0.38672-0.5625 0.99609 0 0.54492 0.2812 0.85547 0.2813 0.31055 0.9902 0.47461 0.375 0.082 1.0665 0.19922 0.6914 0.11719 1.1718 0.24023 0.9727 0.25782 1.4649 0.7793t0.4922 1.459z"/>
    <path d="m1310.6 717.63q0 1.5996-0.8203 2.5254t-2.1973 0.92578q-1.3887 0-2.209-0.92578-0.8144-0.92578-0.8144-2.5254t0.8144-2.5254q0.8203-0.93164 2.209-0.93164 1.377 0 2.1973 0.93164 0.8203 0.92578 0.8203 2.5254zm-1.1367 0q0-1.2715-0.4981-1.8867-0.498-0.62109-1.3828-0.62109-0.8965 0-1.3945 0.62109-0.4922 0.61523-0.4922 1.8867 0 1.2305 0.498 1.8691 0.4981 0.63281 1.3887 0.63281 0.8789 0 1.377-0.62695 0.5039-0.63281 0.5039-1.875z"/>
    <path d="m1317.7 720.9h-1.1016v-0.72656q-0.5566 0.43945-1.0664 0.67382-0.5097 0.23438-1.125 0.23438-1.0312 0-1.6054-0.62695-0.5743-0.63282-0.5743-1.8516v-4.248h1.1016v3.7266q0 0.49805 0.047 0.85547 0.047 0.35156 0.1992 0.60351 0.1582 0.25782 0.4102 0.375 0.2519 0.11719 0.7324 0.11719 0.4277 0 0.9316-0.22265 0.5098-0.22266 0.9492-0.56836v-4.8867h1.1016z"/>
    <path d="m1323.3 720.84q-0.3105 0.082-0.6797 0.13476-0.3633 0.0527-0.6504 0.0527-1.0019 0-1.5234-0.53907-0.5215-0.53906-0.5215-1.7285v-3.4805h-0.7441v-0.92578h0.7441v-1.8809h1.1016v1.8809h2.2734v0.92578h-2.2734v2.9824q0 0.51563 0.023 0.80859 0.023 0.28711 0.1641 0.53907 0.1289 0.23437 0.3515 0.3457 0.2285 0.10547 0.6914 0.10547 0.2696 0 0.5625-0.0762 0.293-0.082 0.4219-0.13477h0.059z"/>
    <path d="m1330.1 717.74h-4.8223q0 0.60351 0.1816 1.0547 0.1817 0.44532 0.4981 0.73243 0.3047 0.28125 0.7207 0.42187 0.4219 0.14063 0.9258 0.14063 0.6679 0 1.3418-0.26368 0.6796-0.26953 0.9668-0.52734h0.059v1.2012q-0.5566 0.23438-1.1367 0.39258-0.58 0.1582-1.2187 0.1582-1.6289 0-2.543-0.8789-0.9141-0.88477-0.9141-2.5078 0-1.6055 0.8731-2.5488 0.8789-0.94336 2.3086-0.94336 1.3242 0 2.0391 0.77343 0.7207 0.77344 0.7207 2.1973zm-1.0723-0.84375q-0.01-0.86719-0.4395-1.3418-0.4277-0.47461-1.3066-0.47461-0.8848 0-1.4121 0.52148-0.5215 0.52149-0.5918 1.2949zm0.2871-5.8184-1.3359 2.2207h-1.3301l-1.336-2.2207h0.9317l1.084 1.5 1.0781-1.5z"/>
    <path d="m1336.5 720.9h-5.2852v-0.81445l3.8145-4.8106h-3.7325v-0.91992h5.1036v0.78515l-3.8321 4.8281h3.9317zm-0.668-9.8203-1.3359 2.2207h-1.3301l-1.336-2.2207h0.9317l1.084 1.5 1.0781-1.5z"/>
    <path d="m1343.6 717.74h-4.8223q0 0.60351 0.1817 1.0547 0.1816 0.44532 0.498 0.73243 0.3047 0.28125 0.7207 0.42187 0.4219 0.14063 0.9258 0.14063 0.668 0 1.3418-0.26368 0.6797-0.26953 0.9668-0.52734h0.059v1.2012q-0.5567 0.23438-1.1367 0.39258-0.5801 0.1582-1.2188 0.1582-1.6289 0-2.543-0.8789-0.914-0.88477-0.914-2.5078 0-1.6055 0.873-2.5488 0.8789-0.94336 2.3086-0.94336 1.3242 0 2.0391 0.77343 0.7207 0.77344 0.7207 2.1973zm-1.0723-0.84375q-0.01-0.86719-0.4394-1.3418-0.4278-0.47461-1.3067-0.47461-0.8847 0-1.4121 0.52148-0.5215 0.52149-0.5918 1.2949z"/>
   </g>
   <path d="m1419.8 774.2 0.1853 28.575 5.625 5.04 77.19 0.18533v-28.76l-5.625-5.04z" fill="#383731"/>
   <path d="m1417.8 772.2v28.76l5.625 5.04h77.375v-28.76l-5.625-5.04z" fill="#fff29b"/>
   <g fill="#393939" stroke-linecap="round" aria-label="Noční Režim">
    <path d="m1451.1 785.9h-1.4356l-4.1367-7.8047v7.8047h-1.084v-8.7246h1.7988l3.7735 7.125v-7.125h1.084z"/>
    <path d="m1458.9 782.63q0 1.5996-0.8203 2.5254t-2.1973 0.92578q-1.3886 0-2.2089-0.92578-0.8145-0.92578-0.8145-2.5254t0.8145-2.5254q0.8203-0.93164 2.2089-0.93164 1.377 0 2.1973 0.93164 0.8203 0.92578 0.8203 2.5254zm-1.1367 0q0-1.2715-0.4981-1.8867-0.498-0.62109-1.3828-0.62109-0.8964 0-1.3945 0.62109-0.4922 0.61523-0.4922 1.8867 0 1.2305 0.4981 1.8691 0.498 0.63281 1.3886 0.63281 0.8789 0 1.377-0.62695 0.5039-0.63281 0.5039-1.875z"/>
    <path d="m1465.4 785.49q-0.5508 0.26367-1.0488 0.41016-0.4922 0.14648-1.0489 0.14648-0.7089 0-1.3007-0.20507-0.5918-0.21094-1.0137-0.63282-0.4277-0.42187-0.6621-1.0664t-0.2344-1.5059q0-1.6055 0.8789-2.5195 0.8848-0.91407 2.332-0.91407 0.5625 0 1.1016 0.15821 0.5449 0.1582 0.9961 0.38672v1.2246h-0.059q-0.5039-0.39257-1.043-0.60351-0.5332-0.21094-1.0429-0.21094-0.9375 0-1.4825 0.63281-0.539 0.62696-0.539 1.8457 0 1.1836 0.5273 1.8223 0.5332 0.63282 1.4942 0.63282 0.3339 0 0.6797-0.0879 0.3457-0.0879 0.621-0.22851 0.2403-0.12305 0.4512-0.25781 0.211-0.14063 0.334-0.24024h0.059zm-0.1875-9.4102-1.3359 2.2207h-1.3301l-1.336-2.2207h0.9317l1.084 1.5 1.0781-1.5z"/>
    <path d="m1472.3 785.9h-1.1015v-3.7266q0-0.45118-0.053-0.84375-0.053-0.39844-0.1933-0.6211-0.1465-0.24609-0.4219-0.36328-0.2754-0.12305-0.7149-0.12305-0.4511 0-0.9433 0.22266t-0.9434 0.56836v4.8867h-1.1015v-6.5449h1.1015v0.72656q0.5157-0.42773 1.0664-0.66797 0.5508-0.24023 1.1309-0.24023 1.0605 0 1.6172 0.63867 0.5566 0.63867 0.5566 1.8398z"/>
    <path d="m1475.6 785.9h-1.1016v-6.5449h1.1016zm1.2129-9.8203-1.5996 2.1914h-0.8731l1.0489-2.1914z"/>
    <path d="m1450.1 800.9h-1.5058l-2.918-3.4688h-1.6348v3.4688h-1.1601v-8.7246h2.4433q0.791 0 1.3184 0.10547 0.5273 0.0996 0.9492 0.36328 0.4746 0.29883 0.7383 0.75586 0.2695 0.45117 0.2695 1.1484 0 0.94336-0.4746 1.582-0.4746 0.63281-1.3066 0.95508zm-2.7129-6.2695q0-0.375-0.1347-0.66211-0.129-0.29297-0.4336-0.49219-0.252-0.16992-0.5977-0.23437-0.3457-0.0703-0.8144-0.0703h-1.3653v3.293h1.1719q0.5508 0 0.9609-0.0937 0.4102-0.0996 0.6973-0.36328 0.2637-0.24609 0.3867-0.5625 0.1289-0.32226 0.1289-0.81445z"/>
    <path d="m1456.3 797.74h-4.8223q0 0.60351 0.1817 1.0547 0.1816 0.44532 0.498 0.73243 0.3047 0.28125 0.7207 0.42187 0.4219 0.14063 0.9258 0.14063 0.668 0 1.3418-0.26368 0.6797-0.26953 0.9668-0.52734h0.059v1.2012q-0.5567 0.23438-1.1367 0.39258-0.5801 0.1582-1.2188 0.1582-1.6289 0-2.543-0.8789-0.914-0.88477-0.914-2.5078 0-1.6055 0.873-2.5488 0.8789-0.94336 2.3086-0.94336 1.3242 0 2.0391 0.77343 0.7207 0.77344 0.7207 2.1973zm-1.0723-0.84375q-0.01-0.86719-0.4394-1.3418-0.4278-0.47461-1.3067-0.47461-0.8847 0-1.4121 0.52148-0.5215 0.52149-0.5918 1.2949z"/>
    <path d="m1462.8 800.9h-5.2852v-0.81445l3.8145-4.8106h-3.7324v-0.91992h5.1035v0.78515l-3.832 4.8281h3.9316zm-0.668-9.8203-1.3359 2.2207h-1.3301l-1.3359-2.2207h0.9316l1.084 1.5 1.0781-1.5z"/>
    <path d="m1465.5 793.26h-1.2422v-1.1426h1.2422zm-0.07 7.6406h-1.1016v-6.5449h1.1016z"/>
    <path d="m1477.2 800.9h-1.1016v-3.7266q0-0.42188-0.041-0.81446-0.035-0.39257-0.1582-0.62695-0.1348-0.25195-0.3867-0.38086-0.252-0.12891-0.7266-0.12891-0.4629 0-0.9258 0.23438-0.4629 0.22852-0.9258 0.58594 0.018 0.13476 0.029 0.3164 0.012 0.17578 0.012 0.35157v4.1894h-1.1016v-3.7266q0-0.4336-0.041-0.82032-0.035-0.39257-0.1582-0.62695-0.1348-0.25195-0.3867-0.375-0.252-0.12891-0.7266-0.12891-0.4512 0-0.9082 0.22266-0.4512 0.22266-0.9024 0.56836v4.8867h-1.1015v-6.5449h1.1015v0.72656q0.5157-0.42773 1.0254-0.66797 0.5157-0.24023 1.0957-0.24023 0.668 0 1.1309 0.28125 0.4687 0.28125 0.6973 0.77929 0.6679-0.5625 1.2187-0.80859 0.5508-0.25195 1.1777-0.25195 1.0782 0 1.5879 0.65625 0.5157 0.65039 0.5157 1.8223z"/>
   </g>
   <path d="m975.77 792.2 0.1853 28.575 5.625 5.04 77.19 0.18533v-28.76l-5.625-5.04z" fill="#383731"/>
   <path d="m973.77 790.2v28.76l5.625 5.04h77.375v-28.76l-5.625-5.04z" fill="#fff29b"/>
   <g fill="#393939" stroke-linecap="round" aria-label="Možná přijde kouzelník">
    <path d="m986.19 803.9h-1.1602v-7.5176l-2.4258 5.1152h-0.69141l-2.4082-5.1152v7.5176h-1.084v-8.7246h1.582l2.3262 4.8574 2.25-4.8574h1.6113z"/>
    <path d="m994.04 800.63q0 1.5996-0.82032 2.5254-0.82031 0.92578-2.1973 0.92578-1.3887 0-2.209-0.92578-0.81445-0.92578-0.81445-2.5254t0.81445-2.5254q0.82032-0.93164 2.209-0.93164 1.377 0 2.1973 0.93164 0.82032 0.92578 0.82032 2.5254zm-1.1367 0q0-1.2715-0.49805-1.8867-0.49805-0.62109-1.3828-0.62109-0.89649 0-1.3945 0.62109-0.49219 0.61523-0.49219 1.8867 0 1.2305 0.49805 1.8691 0.49804 0.63281 1.3887 0.63281 0.8789 0 1.377-0.62695 0.50391-0.63281 0.50391-1.875z"/>
    <path d="m1000.5 803.9h-5.2852v-0.81445l3.8144-4.8106h-3.7324v-0.91992h5.1035v0.78515l-3.832 4.8281h3.9316zm-0.66798-9.8203-1.3359 2.2207h-1.3301l-1.3359-2.2207h0.93164l1.084 1.5 1.0781-1.5z"/>
    <path d="m1007.5 803.9h-1.1015v-3.7266q0-0.45118-0.053-0.84375-0.053-0.39844-0.1933-0.6211-0.1465-0.24609-0.4219-0.36328-0.2754-0.12305-0.7148-0.12305-0.4512 0-0.9434 0.22266t-0.9434 0.56836v4.8867h-1.1015v-6.5449h1.1015v0.72656q0.5157-0.42773 1.0664-0.66797 0.5508-0.24023 1.1309-0.24023 1.0606 0 1.6172 0.63867t0.5566 1.8398z"/>
    <path d="m1014.7 803.9h-1.0957v-0.69727q-0.1465 0.0996-0.3985 0.28125-0.2461 0.17578-0.4804 0.28125-0.2754 0.13477-0.6329 0.22266-0.3574 0.0937-0.8378 0.0937-0.8848 0-1.5-0.58594-0.6153-0.58594-0.6153-1.4941 0-0.74414 0.3164-1.2012 0.3223-0.46289 0.9141-0.72656 0.5976-0.26367 1.4355-0.35742 0.8379-0.0937 1.7989-0.14063v-0.16992q0-0.375-0.1348-0.6211-0.1289-0.24609-0.375-0.38671-0.2344-0.13477-0.5625-0.18164-0.3281-0.0469-0.6855-0.0469-0.4336 0-0.9668 0.11719-0.5332 0.11133-1.1016 0.32812h-0.059v-1.1191q0.3223-0.0879 0.9316-0.19336 0.6094-0.10547 1.2012-0.10547 0.6914 0 1.2012 0.11719 0.5156 0.11133 0.8906 0.38672 0.3691 0.26953 0.5625 0.69727 0.1934 0.42773 0.1934 1.0605zm-1.0957-1.6113v-1.8223q-0.5039 0.0293-1.1895 0.0879-0.6797 0.0586-1.0781 0.16992-0.4746 0.13476-0.7676 0.42187-0.293 0.28125-0.293 0.7793 0 0.5625 0.3399 0.84961 0.3398 0.28125 1.0371 0.28125 0.5801 0 1.0605-0.22266 0.4805-0.22851 0.8907-0.54492zm0.3984-8.209-1.5996 2.1914h-0.8731l1.0489-2.1914z"/>
    <path d="m1026.8 800.55q0 0.79687-0.2285 1.459-0.2285 0.65625-0.6445 1.1133-0.3868 0.4336-0.9141 0.67383-0.5215 0.23438-1.1074 0.23438-0.5098 0-0.9258-0.11133-0.4102-0.11133-0.8379-0.34571v2.7422h-1.1016v-8.959h1.1016v0.68554q0.4394-0.36914 0.9844-0.61523 0.5507-0.25195 1.1718-0.25195 1.1836 0 1.8399 0.89648 0.6621 0.89063 0.6621 2.4785zm-1.1367 0.0293q0-1.1836-0.4043-1.7695t-1.2422-0.58594q-0.4746 0-0.9551 0.20508t-0.9199 0.53907v3.709q0.4687 0.21094 0.8027 0.28711 0.3399 0.0762 0.7676 0.0762 0.9199 0 1.4356-0.62109 0.5156-0.6211 0.5156-1.8398z"/>
    <path d="m1032.6 798.56h-0.059q-0.2461-0.0586-0.4805-0.082-0.2285-0.0293-0.5449-0.0293-0.5098 0-0.9844 0.22852-0.4746 0.22265-0.914 0.58007v4.6465h-1.1016v-6.5449h1.1016v0.96679q0.6562-0.52734 1.1543-0.74414 0.5039-0.22265 1.0253-0.22265 0.2872 0 0.4161 0.0176 0.1289 0.0117 0.3867 0.0527zm-0.3106-4.4766-1.3359 2.2207h-1.3301l-1.3359-2.2207h0.9316l1.084 1.5 1.0781-1.5z"/>
    <path d="m1034.9 796.26h-1.2422v-1.1426h1.2422zm-0.07 7.6406h-1.1016v-6.5449h1.1016z"/>
    <path d="m1039 796.26h-1.2422v-1.1426h1.2422zm-0.07 7.7988q0 1.1484-0.5859 1.7344-0.5859 0.58593-1.5703 0.58593-0.2344 0-0.6211-0.0469-0.3809-0.0469-0.6387-0.11719v-1.0488h0.059q0.1641 0.0645 0.4395 0.14649 0.2812 0.082 0.5449 0.082 0.4219 0 0.6797-0.11719t0.3867-0.35156q0.1289-0.23438 0.1641-0.56836 0.041-0.32812 0.041-0.80273v-5.2734h-1.3653v-0.92578h2.4668z"/>
    <path d="m1046.4 803.9h-1.1016v-0.68555q-0.4746 0.41016-0.9902 0.63867-0.5156 0.22852-1.1191 0.22852-1.1719 0-1.8633-0.90234-0.6856-0.90235-0.6856-2.502 0-0.83203 0.2344-1.4824 0.2402-0.65039 0.6445-1.1074 0.3985-0.44531 0.9258-0.67969 0.5332-0.23437 1.1016-0.23437 0.5156 0 0.914 0.11132 0.3985 0.10547 0.8379 0.33399v-2.8359h1.1016zm-1.1016-1.6113v-3.7559q-0.4453-0.19922-0.7968-0.27539-0.3516-0.0762-0.7676-0.0762-0.9258 0-1.4414 0.64453-0.5157 0.64453-0.5157 1.8281 0 1.166 0.3985 1.7754 0.3984 0.60351 1.2773 0.60351 0.4688 0 0.9492-0.20508 0.4805-0.21093 0.8965-0.53906z"/>
    <path d="m1054.1 800.74h-4.8223q0 0.60351 0.1816 1.0547 0.1817 0.44532 0.4981 0.73243 0.3047 0.28125 0.7207 0.42187 0.4219 0.14063 0.9258 0.14063 0.6679 0 1.3418-0.26368 0.6797-0.26953 0.9668-0.52734h0.059v1.2012q-0.5567 0.23438-1.1368 0.39258-0.58 0.1582-1.2187 0.1582-1.6289 0-2.543-0.8789-0.914-0.88477-0.914-2.5078 0-1.6055 0.873-2.5488 0.8789-0.94336 2.3086-0.94336 1.3242 0 2.0391 0.77343 0.7207 0.77344 0.7207 2.1973zm-1.0723-0.84375q-0.01-0.86719-0.4394-1.3418-0.4278-0.47461-1.3067-0.47461-0.8848 0-1.4121 0.52148-0.5215 0.52149-0.5918 1.2949z"/>
    <path d="m994.7 818.9h-1.4531l-2.625-2.8652-0.71484 0.67969v2.1856h-1.1016v-9.1172h1.1016v5.8477l3.1816-3.2754h1.3887l-3.041 3.0234z"/>
    <path d="m1001.3 815.63q0 1.5996-0.8203 2.5254-0.82031 0.92578-2.1973 0.92578-1.3887 0-2.209-0.92578-0.81446-0.92578-0.81446-2.5254t0.81446-2.5254q0.82031-0.93164 2.209-0.93164 1.377 0 2.1973 0.93164 0.8203 0.92578 0.8203 2.5254zm-1.1367 0q0-1.2715-0.49805-1.8867-0.49804-0.62109-1.3828-0.62109-0.89648 0-1.3945 0.62109-0.49219 0.61523-0.49219 1.8867 0 1.2305 0.49805 1.8691 0.49805 0.63281 1.3887 0.63281 0.87891 0 1.377-0.62695 0.50391-0.63281 0.50391-1.875z"/>
    <path d="m1008.5 818.9h-1.1015v-0.72656q-0.5567 0.43945-1.0664 0.67382-0.5098 0.23438-1.125 0.23438-1.0313 0-1.6055-0.62695-0.5742-0.63282-0.5742-1.8516v-4.248h1.1015v3.7266q0 0.49805 0.047 0.85547 0.047 0.35156 0.1992 0.60351 0.1582 0.25782 0.4102 0.375 0.2519 0.11719 0.7324 0.11719 0.4277 0 0.9317-0.22265 0.5097-0.22266 0.9492-0.56836v-4.8867h1.1015z"/>
    <path d="m1015.4 818.9h-5.2852v-0.81445l3.8145-4.8106h-3.7324v-0.91992h5.1035v0.78515l-3.832 4.8281h3.9316z"/>
    <path d="m1022.3 815.74h-4.8223q0 0.60351 0.1817 1.0547 0.1816 0.44532 0.498 0.73243 0.3047 0.28125 0.7207 0.42187 0.4219 0.14063 0.9258 0.14063 0.668 0 1.3418-0.26368 0.6797-0.26953 0.9668-0.52734h0.059v1.2012q-0.5567 0.23438-1.1367 0.39258-0.5801 0.1582-1.2188 0.1582-1.6289 0-2.5429-0.8789-0.9141-0.88477-0.9141-2.5078 0-1.6055 0.873-2.5488 0.8789-0.94336 2.3086-0.94336 1.3242 0 2.0391 0.77343 0.7207 0.77344 0.7207 2.1973zm-1.0723-0.84375q-0.01-0.86719-0.4394-1.3418-0.4278-0.47461-1.3067-0.47461-0.8847 0-1.4121 0.52148-0.5215 0.52149-0.5918 1.2949z"/>
    <path d="m1025.1 818.9h-1.1016v-9.1172h1.1016z"/>
    <path d="m1032.8 818.9h-1.1016v-3.7266q0-0.45118-0.053-0.84375-0.053-0.39844-0.1934-0.6211-0.1465-0.24609-0.4219-0.36328-0.2754-0.12305-0.7148-0.12305-0.4512 0-0.9434 0.22266t-0.9433 0.56836v4.8867h-1.1016v-6.5449h1.1016v0.72656q0.5156-0.42773 1.0664-0.66797 0.5508-0.24023 1.1308-0.24023 1.0606 0 1.6172 0.63867 0.5567 0.63867 0.5567 1.8398z"/>
    <path d="m1036 818.9h-1.1015v-6.5449h1.1015zm1.2129-9.8203-1.5996 2.1914h-0.873l1.0488-2.1914z"/>
    <path d="m1044.2 818.9h-1.4532l-2.625-2.8652-0.7148 0.67969v2.1856h-1.1016v-9.1172h1.1016v5.8477l3.1816-3.2754h1.3887l-3.041 3.0234z"/>
   </g>
  </g>
 </g>
</svg>
