<?xml version="1.0" encoding="UTF-8" standalone="no"?>
<!-- Generator: Adobe Illustrator 24.2.0, SVG Export Plug-In . SVG Version: 6.00 Build 0)  -->

<svg
   xmlns:dc="http://purl.org/dc/elements/1.1/"
   xmlns:cc="http://creativecommons.org/ns#"
   xmlns:rdf="http://www.w3.org/1999/02/22-rdf-syntax-ns#"
   xmlns:svg="http://www.w3.org/2000/svg"
   xmlns="http://www.w3.org/2000/svg"
   xmlns:sodipodi="http://sodipodi.sourceforge.net/DTD/sodipodi-0.dtd"
   xmlns:inkscape="http://www.inkscape.org/namespaces/inkscape"
   version="1.1"
   id="Vrstva_1"
   x="0px"
   y="0px"
   viewBox="0 0 349.8 83.8"
   style="enable-background:new 0 0 349.8 83.8;"
   xml:space="preserve"
   sodipodi:docname="logo_sagelab.svg"
   inkscape:version="0.92.3 (2405546, 2018-03-11)"><metadata
   id="metadata23"><rdf:RDF><cc:Work
       rdf:about=""><dc:format>image/svg+xml</dc:format><dc:type
         rdf:resource="http://purl.org/dc/dcmitype/StillImage" /></cc:Work></rdf:RDF></metadata><defs
   id="defs21" /><sodipodi:namedview
   pagecolor="#ffffff"
   bordercolor="#666666"
   borderopacity="1"
   objecttolerance="10"
   gridtolerance="10"
   guidetolerance="10"
   inkscape:pageopacity="0"
   inkscape:pageshadow="2"
   inkscape:window-width="2560"
   inkscape:window-height="1377"
   id="namedview19"
   showgrid="false"
   inkscape:zoom="0.99199546"
   inkscape:cx="174.89999"
   inkscape:cy="41.900002"
   inkscape:window-x="-8"
   inkscape:window-y="-8"
   inkscape:window-maximized="1"
   inkscape:current-layer="Vrstva_1" />
<style
   type="text/css"
   id="style2">
	.st0{fill:#2091D9;}
</style>
<g
   id="g10">
	<path
   class="st0"
   d="M241.4,1.6L228,82h-9.2l13.4-80.4C232.2,1.6,241.4,1.6,241.4,1.6z"
   id="path4" />
	<path
   class="st0"
   d="M286.5,82h-9.4c0-1.2-0.1-2.2-0.1-3c0-3.1,0.4-5.9,1.1-8.7c-6,8.9-13.5,13.3-22.4,13.3   c-5.6,0-10.1-1.7-13.7-5.1s-5.3-7.7-5.3-12.8c0-5.8,2.6-10.7,7.7-14.8c5.1-4.1,14.6-6.1,28.6-6.1c1.3,0,4.3,0.1,9,0.4   c0.4-2.6,0.7-4.6,0.7-6.2c0-7.5-4.6-11.3-13.7-11.3c-8,0-13.8,3.4-17.3,10.1L243,34c4.7-9,13.2-13.5,25.3-13.5   c6.7,0,12.4,1.5,16.9,4.4c4.5,3,6.8,7.2,6.8,12.6c0,2.2-1.5,12.5-4.5,31c-0.8,5-1.2,8.7-1.2,11C286.4,79.8,286.4,80.7,286.5,82z    M280.8,52c-2.8-0.2-5.5-0.4-8.1-0.4c-17.1,0-25.7,4.8-25.7,14.5c0,3,0.9,5.4,2.8,7.2c1.9,1.8,4.5,2.7,7.8,2.7   c5.2,0,10.1-2.3,14.6-6.8C276.7,64.7,279.6,59,280.8,52z"
   id="path6" />
	<path
   class="st0"
   d="M297.4,82h-4l13.4-80.4h9.3l-5,30.2c5.1-7.3,11.2-10.9,18.4-10.9c6.3,0,11.3,2.3,14.9,6.9s5.4,10.7,5.4,18.4   c0,9.7-2.6,18.4-7.9,26s-12.1,11.5-20.5,11.5c-8.3,0-14.5-4.1-18.6-12.2L297.4,82z M321.1,76.5c5.8,0,10.4-3.2,13.8-9.7   c3.4-6.4,5.1-13.9,5.1-22.3c0-5.2-1.1-9.2-3.4-12s-5.3-4.3-8.9-4.3c-5.9,0-10.8,3.4-14.9,10.1c-4,6.7-6.1,13.7-6.1,20.9   c0,5.4,1.4,9.6,4.2,12.7C313.8,75,317.2,76.5,321.1,76.5z"
   id="path8" />
</g>
<g
   id="g16"
   style="fill:#dcdcdc;fill-opacity:1">
	<path
   d="M76.7,21.6c-0.2,0.1-0.3,0.1-0.5,0.1c-4.9,10.8-9.8,21.6-14.8,32.6h0c5-11.1,9.9-21.7,14.8-32.5c0.2-0.1,0.3-0.1,0.5-0.1   c2.5,5.3,4.9,10.7,7.3,16.1C81.6,32.4,79.2,27,76.7,21.6z"
   id="path12"
   style="fill:#dcdcdc;fill-opacity:1" />
	<path
   d="M213,10.7c0.2-3.2,0.2-6,0-8.9h-40.6v40.6h-27.8v9.1h19.8c-0.3,1.1-0.4,2-0.7,2.9c-2,6.6-5.4,12.3-11.3,16.2   c-6.5,4.3-13.7,5-21.1,3.3C113.8,70,102.9,53,106.4,35.4c2.7-13.8,14.2-25,29.2-26.2c9.1-0.8,17.1,2,23.9,8c1.1,1,2.1,2,3.1,3   c2.2-2.2,4.2-4.3,6.4-6.5c-9.8-10.3-21.8-15-36.1-13.4c-6.9,0.8-13.2,3.3-18.8,7.4c-11.7,8.6-17.4,20.4-17.5,34.9h-0.4   c-6-13.2-12-26.4-18-39.6h-3.7C66.3,21,58.2,39,50,57c-0.1,0-0.2-0.1-0.3-0.1c-0.1-0.6-0.2-1.2-0.3-1.8   c-0.8-6.9-4.3-12.1-10.2-15.5c-3.5-2-7.3-3.5-11.1-5.1c-3.7-1.5-7.5-2.8-10.8-5.2c-3.7-2.7-5.2-6.9-3.9-11.2   c1.7-5.5,5.8-8.1,11.2-8.9c5.5-0.7,11,2.1,13.5,6.6c0.2,0.4,0.4,0.8,0.8,1.4c2.5-1.7,5-3.2,7.6-4.9c-0.6-1.1-1.1-2.1-1.7-2.9   C39.2,1.8,31.6-1,22.4,0.3C11,1.9,2.5,12.3,4.2,24c0.7,5.5,3.1,9.8,7.7,12.9c3.6,2.5,7.6,4,11.6,5.6c3.9,1.5,7.9,2.9,11.4,5.4   c6.3,4.5,7.1,12.1,4.4,17.8c-3.2,6.6-10.2,10-17.5,8.7c-6.7-1.2-11.6-6-12.8-12.6c-0.1-0.3-0.2-0.6-0.4-1.1   c-2.9,0.6-5.8,1.2-8.5,1.8c-0.4,4.3,3.5,11.7,8.1,15.3c10.2,7.9,20.9,7.7,32,1c-0.7,1.5-1.2,2.8-1.8,4.2c3.4,0,6.6,0,10.1-0.1   c3.1-6.9,6.2-13.8,9.3-20.6h37.5c3.2,7,6.3,13.8,9.4,20.6h10c-1.5-3.3-3-6.5-4.4-9.7c0.4,0,0.7,0.1,0.9,0.3   c3.2,2.9,6.8,5.1,10.7,6.8c9,3.9,18.4,4.7,27.8,1.7c10.6-3.4,17.4-10.9,21.5-21c0.2-0.6,0.5-1.3,0.8-2c0.1,0.1,0.3,0.1,0.4,0.1   v22.8H213V73h-31.4V42.9H213v-9h-31.6c-0.1-7.8-0.1-15.3,0-23.2H213z M61.4,54.4c0,0,0-0.1,0-0.1h0c5-11,9.9-21.8,14.8-32.6   c0.2,0,0.3,0,0.5-0.1c2.5,5.4,4.9,10.8,7.3,16.2c2.4,5.4,4.9,10.9,7.4,16.5C81.3,54.3,71.5,54.3,61.4,54.4z"
   id="path14"
   style="fill:#dcdcdc;fill-opacity:1" />
</g>
</svg>