<?xml version="1.0" encoding="UTF-8" standalone="no"?>
<!-- Created with Inkscape (http://www.inkscape.org/) -->

<svg
   xmlns:dc="http://purl.org/dc/elements/1.1/"
   xmlns:cc="http://creativecommons.org/ns#"
   xmlns:rdf="http://www.w3.org/1999/02/22-rdf-syntax-ns#"
   xmlns:svg="http://www.w3.org/2000/svg"
   xmlns="http://www.w3.org/2000/svg"
   xmlns:sodipodi="http://sodipodi.sourceforge.net/DTD/sodipodi-0.dtd"
   xmlns:inkscape="http://www.inkscape.org/namespaces/inkscape"
   width="66.97538mm"
   height="74.484146mm"
   viewBox="0 0 66.97538 74.484145"
   version="1.1"
   id="svg8"
   inkscape:version="0.92.3 (2405546, 2018-03-11)"
   sodipodi:docname="logo_grafit.svg">
  <defs
     id="defs2" />
  <sodipodi:namedview
     id="base"
     pagecolor="#ffffff"
     bordercolor="#666666"
     borderopacity="1.0"
     inkscape:pageopacity="0.0"
     inkscape:pageshadow="2"
     inkscape:zoom="2"
     inkscape:cx="196.10622"
     inkscape:cy="76.617249"
     inkscape:document-units="mm"
     inkscape:current-layer="layer1"
     showgrid="false"
     inkscape:window-width="1920"
     inkscape:window-height="1017"
     inkscape:window-x="2552"
     inkscape:window-y="137"
     inkscape:window-maximized="1" />
  <metadata
     id="metadata5">
    <rdf:RDF>
      <cc:Work
         rdf:about="">
        <dc:format>image/svg+xml</dc:format>
        <dc:type
           rdf:resource="http://purl.org/dc/dcmitype/StillImage" />
        <dc:title />
      </cc:Work>
    </rdf:RDF>
  </metadata>
  <g
     inkscape:label="Layer 1"
     inkscape:groupmode="layer"
     id="layer1"
     transform="translate(-103.39587,-104.90212)">
    <path
       style="opacity:1;fill:#843e99;fill-opacity:1;stroke:none;stroke-width:3.77952766;stroke-linecap:round;stroke-miterlimit:4;stroke-dasharray:none;stroke-dashoffset:0;stroke-opacity:1;paint-order:normal"
       d="m 510.03906,396.48047 -77.55468,44.77734 28.53515,16.47266 49.01953,-28.30078 z m -77.55468,44.77734 z"
       transform="scale(0.26458333)"
       id="path830"
       inkscape:connector-curvature="0"
       sodipodi:nodetypes="ccccccc"
       inkscape:transform-center-x="12.138572"
       inkscape:transform-center-y="-19.197179" />
    <path
       inkscape:transform-center-y="-19.021047"
       inkscape:transform-center-x="-12.443198"
       sodipodi:nodetypes="ccccccc"
       inkscape:connector-curvature="0"
       id="path839"
       d="m 159.52973,116.92511 -20.51993,-11.84689 4.8e-4,8.71762 12.9696,7.48818 z M 139.0098,105.07822 Z"
       style="opacity:1;fill:#843e99;fill-opacity:1;stroke:none;stroke-width:1;stroke-linecap:round;stroke-miterlimit:4;stroke-dasharray:none;stroke-dashoffset:0;stroke-opacity:1;paint-order:normal" />
    <path
       style="opacity:1;fill:#843e99;fill-opacity:1;stroke:none;stroke-width:1;stroke-linecap:round;stroke-miterlimit:4;stroke-dasharray:none;stroke-dashoffset:0;stroke-opacity:1;paint-order:normal"
       d="m 161.40847,144.22515 -2.6e-4,-23.69422 -7.54944,4.35922 -1.5e-4,14.9761 z m -2.6e-4,-23.69422 z"
       id="path841"
       inkscape:connector-curvature="0"
       sodipodi:nodetypes="ccccccc"
       inkscape:transform-center-x="-20.806978"
       inkscape:transform-center-y="0.175873" />
    <path
       inkscape:transform-center-y="19.197178"
       inkscape:transform-center-x="-12.138573"
       sodipodi:nodetypes="ccccccc"
       inkscape:connector-curvature="0"
       id="path843"
       d="m 138.70531,159.50221 20.51967,-11.84733 -7.54992,-4.3584 -12.96976,7.48792 z m 20.51967,-11.84733 z"
       style="opacity:1;fill:#843e99;fill-opacity:1;stroke:none;stroke-width:1;stroke-linecap:round;stroke-miterlimit:4;stroke-dasharray:none;stroke-dashoffset:0;stroke-opacity:1;paint-order:normal" />
    <path
       style="opacity:1;fill:#843e99;fill-opacity:1;stroke:none;stroke-width:1;stroke-linecap:round;stroke-miterlimit:4;stroke-dasharray:none;stroke-dashoffset:0;stroke-opacity:1;paint-order:normal"
       d="m 114.12341,147.47923 20.51992,11.84689 -4.7e-4,-8.71762 -12.96961,-7.48819 z m 20.51992,11.84689 z"
       id="path845"
       inkscape:connector-curvature="0"
       sodipodi:nodetypes="ccccccc"
       inkscape:transform-center-x="12.443197"
       inkscape:transform-center-y="19.021048" />
    <path
       inkscape:transform-center-y="-0.175872"
       inkscape:transform-center-x="20.806977"
       sodipodi:nodetypes="ccccccc"
       inkscape:connector-curvature="0"
       id="path847"
       d="m 112.24466,120.17919 2.6e-4,23.69421 7.54944,-4.35921 1.6e-4,-14.97611 z m 2.6e-4,23.69421 z"
       style="opacity:1;fill:#843e99;fill-opacity:1;stroke:none;stroke-width:1;stroke-linecap:round;stroke-miterlimit:4;stroke-dasharray:none;stroke-dashoffset:0;stroke-opacity:1;paint-order:normal" />
    <g
       aria-label="GRAFIT"
       style="font-style:normal;font-variant:normal;font-weight:500;font-stretch:normal;font-size:14.06579494px;line-height:15.03747368px;font-family:Roboto;-inkscape-font-specification:'Roboto Medium';text-align:start;text-anchor:start;opacity:1;fill:#ffffff;fill-opacity:1;stroke:#313131;stroke-width:0.1136691;stroke-linecap:butt;stroke-miterlimit:4;stroke-dasharray:none;stroke-dashoffset:0;stroke-opacity:1;paint-order:normal"
       id="text820"
       transform="matrix(1.3599532,0,0,1.3599532,-49.271676,-54.892028)">
      <path
         d="m 117.36529,172.26938 h 0.0844 v -2.39119 c -1.05493,-0.0422 -2.1802,-0.85801 -2.1802,-2.61623 0,-1.6879 0.78769,-2.63031 2.1802,-2.85536 v -2.27866 c -3.12261,0.0985 -5.19028,2.08174 -5.19028,5.13402 0,3.1226 2.43338,5.00742 5.10589,5.00742 z m 3.1648,-7.28608 v -2.33492 c -0.47824,-0.21099 -1.23779,-0.45011 -2.30679,-0.50637 v 2.22239 c 1.01274,0.0281 1.80042,0.35165 2.30679,0.6189 z m -2.30679,7.24388 c 1.30812,-0.12659 2.20833,-0.5345 2.68657,-0.77362 v -4.2338 h -2.68657 z"
         style="font-style:normal;font-variant:normal;font-weight:normal;font-stretch:normal;font-family:'Technika Stencil';-inkscape-font-specification:'Technika Stencil';fill:#ffffff;fill-opacity:1;stroke:none;stroke-width:0.1136691"
         id="path822"
         inkscape:connector-curvature="0" />
      <path
         d="m 122.6571,172.04433 h 2.7569 v -9.56474 h -2.7569 z m 3.53052,-7.5252 h 0.39384 c 0.74548,0 1.18152,0.57669 1.18152,1.18152 0,0.60483 -0.43604,1.1956 -1.18152,1.1956 h -0.39384 v 1.81448 l 1.64569,3.3336 h 3.10854 l -1.75822,-2.95382 c -0.18286,-0.30945 -0.40791,-0.59076 -0.5345,-0.67516 l 0.0141,-0.0563 c 0.84394,-0.37978 2.03954,-1.09713 2.03954,-2.72877 0,-1.71602 -1.36439,-3.15073 -3.60085,-3.15073 h -0.91427 z"
         style="font-style:normal;font-variant:normal;font-weight:normal;font-stretch:normal;font-family:'Technika Stencil';-inkscape-font-specification:'Technika Stencil';fill:#ffffff;fill-opacity:1;stroke:none;stroke-width:0.1136691"
         id="path824"
         inkscape:connector-curvature="0" />
      <path
         d="m 140.83231,172.04433 -2.89756,-9.56474 h -2.6303 l 1.49097,5.2606 h -0.91427 l -0.75956,2.1802 h 2.29273 l 0.60483,2.12394 z m -6.30148,-9.42409 -3.64304,9.42409 h 2.65843 l 2.02548,-5.76698 z"
         style="font-style:normal;font-variant:normal;font-weight:normal;font-stretch:normal;font-family:'Technika Stencil';-inkscape-font-specification:'Technika Stencil';fill:#ffffff;fill-opacity:1;stroke:none;stroke-width:0.1136691"
         id="path826"
         inkscape:connector-curvature="0" />
      <path
         d="m 141.75032,172.04433 h 2.75689 v -9.56474 h -2.75689 z m 3.53051,-7.38455 h 3.02415 v -2.18019 h -3.02415 z m 0,3.68524 h 2.98195 v -2.12393 h -2.98195 z"
         style="font-style:normal;font-variant:normal;font-weight:normal;font-stretch:normal;font-family:'Technika Stencil';-inkscape-font-specification:'Technika Stencil';fill:#ffffff;fill-opacity:1;stroke:none;stroke-width:0.1136691"
         id="path828"
         inkscape:connector-curvature="0" />
      <path
         d="m 149.99199,172.04433 h 2.7569 v -9.56474 h -2.7569 z"
         style="font-style:normal;font-variant:normal;font-weight:normal;font-stretch:normal;font-family:'Technika Stencil';-inkscape-font-specification:'Technika Stencil';fill:#ffffff;fill-opacity:1;stroke:none;stroke-width:0.1136691"
         id="path831"
         inkscape:connector-curvature="0" />
      <path
         d="m 153.9825,164.71605 h 7.52521 v -2.23646 h -7.52521 z m 2.39119,7.32828 h 2.7569 v -6.59686 h -2.7569 z"
         style="font-style:normal;font-variant:normal;font-weight:normal;font-stretch:normal;font-family:'Technika Stencil';-inkscape-font-specification:'Technika Stencil';fill:#ffffff;fill-opacity:1;stroke:none;stroke-width:0.1136691"
         id="path833"
         inkscape:connector-curvature="0" />
    </g>
  </g>
</svg>
